<svg width="24" height="17" viewBox="0 0 24 17" fill="none" xmlns="http://www.w3.org/2000/svg">
<path d="M3.59683 14.2121C3.86219 14.2121 4.12348 14.1426 4.35415 14.01C3.69787 13.2475 3.69787 12.1187 4.35415 11.3563C3.94181 11.1205 3.44371 11.0899 3.00584 11.2736C2.56797 11.4563 2.24034 11.8329 2.11889 12.2912C1.99743 12.7505 2.09542 13.2394 2.38528 13.616C2.67413 13.9916 3.12219 14.2121 3.5968 14.2121L3.59683 14.2121Z" fill="#3734A9"/>
<path d="M5.12585 12.6833C5.12585 14.0214 4.37158 14.0214 4.37158 12.6833C4.37158 11.3452 5.12585 11.3452 5.12585 12.6833Z" fill="#3734A9"/>
<path d="M11.6091 11.7642H21.7137V13.6013H11.6091V11.7642Z" fill="#3734A9"/>
<path d="M5.90042 14.2118C6.37604 14.2118 6.82413 13.9923 7.11398 13.6157C7.40283 13.2391 7.50184 12.7502 7.38036 12.2909C7.25788 11.8316 6.93024 11.455 6.49138 11.2723C6.05351 11.0896 5.55543 11.1202 5.14307 11.356C5.79935 12.1184 5.79935 13.2473 5.14307 14.0097C5.37374 14.1423 5.63502 14.2118 5.90039 14.2118L5.90042 14.2118Z" fill="#3734A9"/>
<path d="M0 3.88184H23.7816V6.99589H0V3.88184Z" fill="#3734A9"/>
<path d="M0 16.6902H23.7816V7.50635H0V16.6902ZM11.0988 11.5093C11.0988 11.3685 11.2131 11.2541 11.354 11.2541H21.9689C22.0363 11.2541 22.1016 11.2807 22.1496 11.3287C22.1975 11.3766 22.2241 11.442 22.2241 11.5093V13.8569C22.2241 13.9242 22.1975 13.9895 22.1496 14.0375C22.1016 14.0855 22.0363 14.112 21.9689 14.112H11.354C11.2131 14.112 11.0988 13.9977 11.0988 13.8569V11.5093ZM3.59692 10.6438C4.00825 10.6438 4.4104 10.7683 4.74822 11.002C5.37286 10.5734 6.18328 10.5264 6.85284 10.8785C7.52239 11.2317 7.94189 11.9257 7.94189 12.6831C7.94189 13.4404 7.52239 14.1345 6.85284 14.4876C6.18328 14.8397 5.37286 14.7928 4.74924 14.3641H4.74822C4.2144 14.7305 3.53771 14.8213 2.92632 14.608C2.31391 14.3957 1.84034 13.9048 1.64845 13.2863C1.45657 12.6667 1.57088 11.9941 1.95568 11.4725C2.33946 10.952 2.94879 10.6438 3.59689 10.6438L3.59692 10.6438Z" fill="#3734A9"/>
<path d="M0 0V3.37117H23.7816V0H0ZM1.94437 1.79331H1.1901V1.28299H1.94437V1.79331ZM7.40481 1.79331H2.54742V1.28299H7.40481V1.79331Z" fill="#3734A9"/>
</svg>
