<svg width="1031" height="1369" viewBox="0 0 1031 1369" fill="none" xmlns="http://www.w3.org/2000/svg">
<path d="M870.676 571.971L915.814 625.238L944.351 658.95V76.921H939.688V646.471L919.358 622.444L874.22 569.177L771.26 446.998C667.182 322.832 563.042 199.287 458.839 76.3623H452.684L768.09 450.537L870.676 571.971Z" fill="#0038FF"/>
<path d="M882.8 638.462C899.586 658.205 916.373 677.947 934.652 699.738L967.666 738.478V69.0986H962.257V724.509L938.756 696.944L886.903 635.855L768.09 494.492L409.412 69.0986H402.51L764.546 497.472L882.8 638.462Z" fill="#0038FF"/>
<path d="M895.11 704.208L953.677 773.306L990.981 817.261V59.9722H984.826V800.685L958.34 769.395C937.45 744.997 918.612 722.647 899.773 700.297L766.038 541.612C630.624 380.941 495.335 220.395 360.17 59.9722H352.15C488.931 221.388 625.34 383.238 761.375 545.523L895.11 704.208Z" fill="#0038FF"/>
<path d="M907.42 769.954C928.311 794.911 949.574 819.682 972.703 847.061L1014.3 895.859V51.4043H1007.58V877.606L977.925 842.777L912.457 765.67L763.24 588.547L310.556 51.4043H301.79L758.204 592.831L907.42 769.954Z" fill="#0038FF"/>
<path d="M919.544 835.7L991.728 920.816L1037.61 974.641V43.3955H1030.15V954.713L997.51 916.345L925.326 831.416L760.629 635.854C594.253 438.182 427.815 240.695 261.315 43.3955H251.616L755.22 640.697L919.544 835.7Z" fill="#0038FF"/>
<path d="M931.855 901.446C957.221 931.618 982.588 961.604 1010.75 994.57L1060.93 1053.42V34.4561H1052.72V1031.26L1016.91 989.355C988.93 956.203 963.377 926.403 938.01 896.231L758.018 682.603C576.223 466.554 394.179 250.505 211.887 34.4561H201.255L751.863 687.818L931.855 901.446Z" fill="#0038FF"/>
<path d="M944.165 967.192C971.584 999.972 999.189 1032.38 1029.78 1068.32L1084.24 1132.21V26.0747H1075.29V1108.18L1036.49 1062.55C1006.09 1026.79 978.298 994.198 950.88 961.605L755.407 729.538C557.944 495.112 360.295 260.625 162.459 26.0747H150.895C349.85 261.99 549.116 498.402 748.692 735.311L944.165 967.192Z" fill="#0038FF"/>
<path d="M956.288 1032.94C985.945 1068.32 1015.79 1103.34 1049.55 1141.89L1108.12 1210.99V17.5073H1098.6V1185.1L1056.82 1135.75C1024 1097.19 993.966 1062.18 963.563 1026.79L752.795 776.845C539.167 523.546 325.913 270.434 113.031 17.5073H100.534C315.654 272.42 530.649 527.52 745.521 782.805L956.288 1032.94Z" fill="#0038FF"/>
<path d="M968.599 1098.68C1000.49 1135.93 1032.39 1174.3 1067.83 1215.65L1130.68 1290.15V9.12598H1120.43V1261.09L1075.66 1208.38C1040.22 1166.85 1008.33 1129.23 976.433 1091.42L749.438 823.594C520.764 552.042 291.966 280.553 63.0436 9.12598H49.6143C280.277 282.291 510.941 555.953 741.604 830.112L968.599 1098.68Z" fill="#0038FF"/>
<path d="M980.909 1164.62C1014.86 1204.85 1048.99 1245.08 1086.85 1289.4L1154 1368.56V0.558725H1143V1338.76L1095.06 1282.88C1057.76 1238.56 1023.25 1198.51 989.303 1158.1L747.573 869.97L14.362 0H0C246.58 292.287 492.973 584.636 739.179 877.047L980.909 1164.62Z" fill="#0038FF"/>
</svg>
