<svg width="32" height="32" viewBox="0 0 32 32" fill="none" xmlns="http://www.w3.org/2000/svg">
<path d="M25.5959 11.6919V9.79591H22.8494C22.6322 9.33796 22.2619 8.96764 21.8039 8.75039V6.00391H19.9079V8.53191H16.7479V6.00391H14.8519V8.53191H11.6919V6.00391H9.79591V8.74669C9.33549 8.96518 8.96517 9.33549 8.74669 9.79591H6.00391V11.6919H8.53191V14.8519H6.00391V16.7479H8.53191V19.9079H6.00391V21.8039H8.74669C8.96518 22.2643 9.33549 22.6346 9.79591 22.8531V25.5959H11.6919V23.0679H14.8519V25.5959H16.7479V23.0679H19.9079V25.5959H21.8039V22.8494C22.2619 22.6322 22.6322 22.2619 22.8494 21.8039H25.5959V19.9079H23.0679V16.7479H25.5959V14.8519H23.0679V11.6919H25.5959ZM21.1719 14.8519V20.8559C21.1719 20.9398 21.1386 21.0201 21.0793 21.0793C21.0201 21.1386 20.9398 21.1719 20.8559 21.1719H10.7439C10.5699 21.1719 10.4279 21.03 10.4279 20.8559V10.7439C10.4279 10.5699 10.5699 10.4279 10.7439 10.4279H20.8559C20.9398 10.4279 21.0201 10.4612 21.0793 10.5205C21.1386 10.5797 21.1719 10.66 21.1719 10.7439V14.8519Z" fill="white"/>
</svg>
