<svg width="28" height="21" viewBox="0 0 28 21" fill="none" xmlns="http://www.w3.org/2000/svg">
<path d="M24.4449 11.3241H16.8965C16.5189 11.3241 16.2286 11.0338 16.2286 10.6561V3.10772C16.2286 2.73007 15.9087 2.41141 15.5323 2.43974C12.9194 2.64274 10.6545 3.97869 9.14516 5.95323C8.27419 5.45991 7.25806 5.16959 6.18416 5.16959C2.75806 5.16959 0 7.95715 0 11.3537C0 14.7503 2.78756 17.5379 6.18416 17.5379C7.28762 17.5379 8.30375 17.2181 9.20294 16.7248C10.8292 18.8444 13.3548 20.2383 16.1411 20.2664C20.9018 20.3243 24.793 16.6952 25.1411 12.05C25.1706 11.6429 24.8507 11.3242 24.4448 11.3242L24.4449 11.3241ZM1.5379 11.3524C1.5379 8.79736 3.59965 6.73688 6.15345 6.73688C8.70852 6.73688 10.769 8.79864 10.769 11.3524C10.769 13.9075 8.70724 15.968 6.15345 15.968C3.59951 15.9691 1.5379 13.8779 1.5379 11.3524Z" fill="#FF7F5C"/>
<path d="M19.3347 0.00188923C18.9571 -0.0275959 18.6384 0.292212 18.6384 0.669863V8.21825C18.6384 8.5959 18.9288 8.88622 19.3064 8.88622H26.8548C27.2324 8.88622 27.5511 8.5664 27.5228 8.18991C27.2029 3.83391 23.719 0.350044 19.3348 0.0019471L19.3347 0.00188923Z" fill="#FF7F5C"/>
<path d="M6.41541 10.7719H5.9221C5.77693 10.7719 5.66126 10.714 5.54444 10.5972C5.45712 10.4816 5.39928 10.3647 5.42877 10.2196C5.45825 9.95874 5.68961 9.7841 5.95158 9.7841H6.50273C6.64789 9.7841 6.76357 9.87142 6.79305 10.0166C6.82254 10.1323 6.90873 10.2196 7.05389 10.2196H7.69237C7.77969 10.2196 7.83753 10.1901 7.89537 10.1323C7.9532 10.0744 7.9532 10.0166 7.9532 9.92926C7.89537 9.26128 7.37256 8.73847 6.73408 8.6523V8.12949C6.73408 7.98433 6.6184 7.86865 6.47324 7.86865H5.83477C5.6896 7.86865 5.57393 7.98433 5.57393 8.12949V8.68177C4.76079 8.85642 4.18015 9.61057 4.26748 10.4532C4.3548 11.2947 5.08061 11.9343 5.95158 11.9343H6.35757C6.50273 11.9343 6.61841 11.9922 6.73522 12.109C6.82254 12.2246 6.88038 12.3414 6.8509 12.4866C6.82141 12.7474 6.59006 12.9221 6.32808 12.9221H5.77693C5.63177 12.9221 5.5161 12.8348 5.48661 12.6896C5.45713 12.5739 5.37094 12.4866 5.22577 12.4866H4.5873C4.49997 12.4866 4.44214 12.5161 4.3843 12.5739C4.32646 12.6318 4.32646 12.6896 4.32646 12.7769C4.3843 13.4449 4.9071 13.9677 5.54558 14.0539V14.5767C5.54558 14.7219 5.66126 14.8375 5.80642 14.8375H6.4449C6.59006 14.8375 6.70573 14.7219 6.70573 14.5767V14.0256C7.40204 13.8509 7.92486 13.2997 8.01219 12.6034C8.07002 12.1385 7.89651 11.6746 7.6062 11.3265C7.31588 10.9749 6.88039 10.7719 6.41541 10.7719V10.7719Z" fill="#FF7F5C"/>
</svg>
