<svg width="79" height="14" viewBox="0 0 79 14" fill="none" xmlns="http://www.w3.org/2000/svg">
<g clip-path="url(#clip0_63_1068)">
<path d="M18.4454 11.9729H28.359V13.9672H16.7692V0.0361328H28.3554V1.97242H18.4454V5.99002H28.3554V7.98071H18.4454V11.9729Z" fill="#0038FF"/>
<path d="M78.1818 0.0292173V1.97275C78.0454 1.97275 77.9126 1.99088 77.7762 1.99088H69.9659C69.1081 1.99088 68.5302 2.35348 68.3579 3.06055C68.281 3.50591 68.2437 3.95734 68.2467 4.40942C68.2456 4.5324 68.2638 4.65478 68.3005 4.77203C68.5266 5.64952 69.0399 6.01575 70.0485 6.01937H74.9227C76.7856 6.01937 77.8875 6.99839 78.1316 8.87666C78.2526 9.72733 78.2331 10.5924 78.0741 11.4366C77.7475 13.0683 76.7676 13.9567 75.1202 13.9748C72.3241 14.0147 69.528 14.0002 66.732 14.0038C66.6718 14.0005 66.6118 13.9932 66.5525 13.9821V11.9805H74.8904C75.7949 11.9805 76.3477 11.549 76.4697 10.6462C76.5344 10.1527 76.5199 9.6519 76.4267 9.16311C76.2759 8.3944 75.7088 8.00642 74.894 8.0028C73.2178 8.0028 71.5381 8.0028 69.869 8.0028C69.1224 8.04397 68.3842 7.82651 67.7765 7.38637C67.1923 6.91052 66.8077 6.22928 66.6997 5.4791C66.4592 4.16649 66.4377 2.86112 67.0048 1.6174C67.222 1.1202 67.5838 0.701576 68.0423 0.417224C68.5007 0.132873 69.034 -0.00372618 69.5711 0.0255878C72.3887 -0.00342026 75.2099 0.0255878 78.0275 0.0255878C78.0789 0.0238204 78.1305 0.0250346 78.1818 0.0292173Z" fill="#0038FF"/>
<path d="M35.1463 13.9858H33.488V0.00390625L43.4447 9.48227V0.0546645H45.0742V13.9785L35.1463 4.51103V13.9858Z" fill="#0038FF"/>
<path d="M49.812 0.0322206C49.9161 0.0322206 49.9879 0.00683594 50.0597 0.00683594H51.4774C51.4774 0.173632 51.4954 0.311421 51.4954 0.449209C51.4954 2.71909 51.4487 4.99622 51.4954 7.2661C51.4952 8.14488 51.7282 9.00763 52.1701 9.76459C52.612 10.5215 53.2466 11.145 54.0079 11.5702C54.6465 11.922 55.3791 12.0599 56.1003 11.9641C56.8214 11.8683 57.4939 11.5438 58.0207 11.0371C58.607 10.5058 59.0714 9.85149 59.3814 9.11996C59.6914 8.38843 59.8395 7.59734 59.8153 6.80197C59.7938 4.69164 59.8153 2.5813 59.8153 0.470964V0.0249726H61.4987V0.362188C61.4987 2.65745 61.5274 4.95271 61.4987 7.2516C61.4664 9.30754 60.8168 11.1278 59.3021 12.5673C58.7962 13.048 58.2002 13.4217 57.5493 13.6664C56.8984 13.9111 56.2057 14.0219 55.5118 13.9923C52.7732 13.9597 50.8134 11.795 50.1853 9.45983C49.9788 8.66394 49.868 7.84582 49.8551 7.02316C49.812 4.8258 49.8551 2.62844 49.8551 0.431083L49.812 0.0322206Z" fill="#0038FF"/>
<path d="M11.6365 13.9815L0 0.00683594C0.865017 0.00683594 1.64748 0.00683594 2.42635 0.00683594C2.50891 0.00683594 2.60941 0.108372 2.67402 0.184518C4.80605 2.73722 6.93449 5.29114 9.05935 7.84626C9.33931 8.18711 9.62287 8.5207 9.97103 8.93407V0.0249726H11.6365V13.9815Z" fill="#0038FF"/>
</g>
<defs>
<clipPath id="clip0_63_1068">
<rect width="78.2069" height="14" fill="white"/>
</clipPath>
</defs>
</svg>
