<svg width="24" height="30" viewBox="0 0 24 30" fill="none" xmlns="http://www.w3.org/2000/svg">
<path fill-rule="evenodd" clip-rule="evenodd" d="M7.4355 1.41211C7.51197 1.4147 7.58844 1.42896 7.65972 1.45747C7.731 1.48469 7.79711 1.52617 7.85543 1.57542C7.91375 1.62596 7.96171 1.68688 7.99929 1.75298C8.03688 1.82038 8.06151 1.89296 8.07447 1.96943C8.08613 2.0446 8.08613 2.12237 8.07187 2.19754C8.05762 2.27272 8.0304 2.3453 7.99152 2.4114C7.91375 2.5436 7.78933 2.64729 7.64416 2.69913C3.95155 4.08984 1.32171 7.65556 1.32171 11.8432C1.32171 14.6804 2.52966 17.2273 4.45695 19.0144C4.53601 19.0883 4.59693 19.1816 4.63322 19.284C4.66821 19.3864 4.67858 19.4965 4.66173 19.6041L3.81926 24.9999L14.1661 27.7009L14.6625 23.8981C14.6742 23.8074 14.7053 23.718 14.7532 23.6389C14.8012 23.5599 14.866 23.4912 14.9412 23.4393C15.0164 23.3862 15.1032 23.3499 15.1939 23.333C15.2846 23.3149 15.378 23.3175 15.4687 23.3369L18.5625 24.042L19.0926 20.8044C19.1055 20.7279 19.1315 20.6527 19.1703 20.5853C19.2092 20.5179 19.2585 20.457 19.3181 20.4065C19.3777 20.3559 19.4464 20.3157 19.519 20.2898C19.5916 20.2626 19.6706 20.2496 19.7484 20.2496H21.9505L20.7049 14.3343C20.6945 14.2825 20.6894 14.228 20.6907 14.1749L20.8047 10.7753C20.4146 7.18653 18.0803 4.18208 14.8778 2.83397C14.7961 2.80157 14.7222 2.75232 14.66 2.69011C14.5978 2.6279 14.5473 2.55402 14.5136 2.47366C14.4799 2.3933 14.463 2.30517 14.463 2.21704C14.463 2.1289 14.4812 2.04206 14.5149 1.96041C14.5486 1.88005 14.5991 1.80617 14.6613 1.74396C14.7235 1.68305 14.7987 1.63379 14.8804 1.60139C14.962 1.56899 15.0502 1.55344 15.137 1.55473C15.2251 1.55603 15.312 1.57547 15.3923 1.61047C19.0461 3.14892 21.7018 6.58348 22.1295 10.6805C22.1321 10.7104 22.1334 10.7415 22.1321 10.7713L22.0181 14.1384L23.4152 20.7757C23.436 20.8716 23.4334 20.9727 23.4113 21.0686C23.388 21.1645 23.344 21.254 23.2817 21.3304C23.2195 21.4069 23.1405 21.4691 23.0523 21.5119C22.9629 21.5547 22.8657 21.5767 22.7672 21.5767H20.3111L19.759 24.9557C19.7447 25.0452 19.711 25.1307 19.663 25.2072C19.6138 25.2837 19.5503 25.3485 19.4751 25.399C19.3999 25.4496 19.3144 25.4845 19.2263 25.5014C19.1381 25.5182 19.0448 25.5157 18.9567 25.4962L15.8849 24.7963L15.3859 28.6223C15.3743 28.7156 15.3419 28.805 15.2926 28.8854C15.2434 28.9658 15.1773 29.0345 15.0995 29.0863C15.0217 29.1381 14.9323 29.1744 14.8403 29.19C14.7483 29.2055 14.6523 29.2017 14.5616 29.1783L2.90582 26.1351C2.82676 26.1144 2.75288 26.0794 2.68678 26.0314C2.62068 25.9834 2.56365 25.9238 2.51958 25.8564C2.47552 25.789 2.44311 25.7126 2.42627 25.6322C2.40942 25.5531 2.40682 25.4702 2.41978 25.3898L3.30244 19.7426C1.26628 17.7298 0 14.9315 0 11.8454C0 7.10169 2.98361 3.04112 7.18181 1.45976C7.26476 1.42736 7.35289 1.4118 7.44103 1.41439L7.4355 1.41211Z" fill="white"/>
<path fill-rule="evenodd" clip-rule="evenodd" d="M12.9905 0C13.0774 0 13.1642 0.0168491 13.2446 0.0505464C13.3249 0.084244 13.3988 0.133496 13.4597 0.194412C13.5206 0.255327 13.5699 0.329205 13.6036 0.409564C13.6373 0.489923 13.6541 0.576761 13.6541 0.663597V10.4451C15.0137 11.2072 15.9365 12.6614 15.9365 14.3231C15.9365 15.7255 15.2807 16.9801 14.2594 17.7954L15.8069 20.4744C15.8523 20.5496 15.8808 20.6339 15.8938 20.7207C15.9054 20.8075 15.9016 20.897 15.8782 20.9812C15.8562 21.0655 15.8173 21.1458 15.7642 21.2158C15.711 21.2858 15.6436 21.3441 15.5685 21.3882C15.4933 21.4323 15.4077 21.4608 15.3209 21.4711C15.2341 21.4828 15.1446 21.4763 15.0604 21.453C14.9761 21.4297 14.8958 21.3895 14.8271 21.3364C14.7584 21.2819 14.7001 21.2145 14.6573 21.138L13.1111 18.4616C12.6082 18.6599 12.0612 18.7688 11.4896 18.7688C9.04133 18.7688 7.04419 16.7715 7.04419 14.3233C7.04419 12.6617 7.96699 11.2062 9.32661 10.4453V0.66379C9.32661 0.576951 9.34346 0.490112 9.37715 0.409757C9.41085 0.329398 9.4601 0.255523 9.52102 0.194605C9.58194 0.13369 9.65581 0.0844372 9.73617 0.0507396C9.81653 0.017042 9.90337 0.00019318 9.99021 0.00019318L12.9905 0ZM12.3269 1.3272H10.655V9.96064C10.9258 9.90879 11.2058 9.88157 11.4909 9.88157C11.7761 9.88157 12.056 9.90879 12.3269 9.96064L12.3269 1.3272ZM11.491 11.2085C9.75936 11.2085 8.37257 12.5954 8.37257 14.3243C8.37257 16.0559 9.75939 17.4427 11.491 17.4427C13.2186 17.4427 14.6093 16.0559 14.6093 14.3243C14.6093 12.5967 13.2186 11.2085 11.491 11.2085Z" fill="white"/>
</svg>
