<svg width="98" height="18" viewBox="0 0 98 18" fill="none" xmlns="http://www.w3.org/2000/svg">
<path d="M2.02394 14.0439C1.29171 14.0455 0.615253 13.653 0.253312 13.0165C-0.103412 12.3838 -0.0820206 11.606 0.308934 10.994L3.95526 5.26801C4.33521 4.6415 5.02286 4.26786 5.75525 4.28999C6.4871 4.30753 7.15279 4.71787 7.49729 5.36381C7.8372 6.00655 7.79472 6.77985 7.38759 7.38319L3.74359 13.1092C3.36802 13.6944 2.71932 14.047 2.02394 14.0439Z" fill="#F62B54"/>
<path d="M8.27844 14.0437C7.54299 14.0437 6.86626 13.6504 6.5109 13.0185C6.15497 12.3876 6.17636 11.6118 6.56652 11.0015L10.2059 5.28862C10.5804 4.65311 11.27 4.2707 12.0074 4.28974C12.749 4.30596 13.4211 4.72081 13.7611 5.36973C14.0987 6.01866 14.0492 6.79659 13.6297 7.39839L9.99113 13.1112C9.61675 13.6939 8.97105 14.0455 8.27844 14.0437Z" fill="#FFCC00"/>
<path d="M14.3929 14.0927C15.4296 14.0927 16.2701 13.2698 16.2701 12.2548C16.2701 11.2398 15.4296 10.417 14.3929 10.417C13.3561 10.417 12.5156 11.2398 12.5156 12.2548C12.5156 13.2698 13.3561 14.0927 14.3929 14.0927Z" fill="#00CA72"/>
<path d="M95.9452 10.5224C96.5123 10.5224 96.8514 10.9256 96.8514 11.5862V13.8497H97.6216V11.5344C97.6216 10.4111 97.0924 9.7599 96.0974 9.7599C95.7081 9.7599 95.09 9.86651 94.7216 10.5826C94.5471 10.1523 94.1503 9.85255 93.6887 9.80239C93.5461 9.77627 93.4008 9.76771 93.2561 9.77689C92.9393 9.80239 92.3754 9.99938 92.1645 10.4459V9.84565H91.3935V13.8497H92.1645V11.6889C92.1645 10.8484 92.7145 10.5224 93.2653 10.5224C93.7814 10.5224 94.1205 10.9171 94.1205 11.5777V13.8497H94.8869V11.6889C94.8869 11.0199 95.2886 10.5147 95.9452 10.5224ZM88.5637 13.1806C88.916 13.1884 89.2559 13.0478 89.5024 12.7928C89.7496 12.5379 89.8809 12.191 89.8678 11.8349C89.8678 11.0284 89.2745 10.5224 88.5637 10.5224C87.8522 10.5224 87.2597 11.0284 87.2597 11.8349C87.2458 12.1903 87.3771 12.5364 87.6228 12.7905C87.8685 13.0455 88.2068 13.1868 88.5576 13.1806H88.5637ZM88.5637 13.9315C87.4374 13.9315 86.4972 13.0995 86.4972 11.8303C86.4972 10.561 87.4374 9.75526 88.5637 9.75526C89.6901 9.75526 90.638 10.561 90.638 11.8303C90.638 13.0995 89.6847 13.9354 88.5583 13.9354L88.5637 13.9315ZM82.5303 11.8303L82.5226 11.8349C82.5226 10.5656 83.4875 9.7599 84.6215 9.75526C85.1977 9.74412 85.7515 9.97768 86.1457 10.398L85.5617 10.8955C85.3111 10.6495 84.9727 10.5138 84.6215 10.5185C83.9108 10.5185 83.2928 11.0245 83.2928 11.8303C83.2928 12.3749 83.6165 12.8655 84.1132 13.074C84.61 13.2826 85.1816 13.1667 85.5617 12.782L86.1542 13.2795C85.7588 13.7042 85.2017 13.9412 84.6215 13.9315C83.496 13.9315 82.5303 13.0995 82.5303 11.8303ZM80.0636 13.081C80.062 12.9396 80.1166 12.8034 80.2154 12.7023C80.3142 12.6011 80.4491 12.5434 80.5905 12.5418C80.7319 12.5434 80.8668 12.6011 80.9656 12.7023C81.0644 12.8034 81.119 12.9396 81.1174 13.081C81.1031 13.3624 80.8723 13.5841 80.5905 13.587C80.3087 13.5841 80.0779 13.3624 80.0636 13.081Z" fill="#333333"/>
<path d="M82.1713 4.75567H79.428L77.5052 9.71298L75.5924 4.75567H72.8492L76.1842 12.5891L74.11 17.7681H76.8331L82.1713 4.75567ZM65.4878 9.11272C65.4878 10.3642 66.5817 11.1877 67.6563 11.1877C68.7123 11.1877 69.7498 10.4214 69.7498 9.11195C69.7498 7.80252 68.7123 7.0354 67.6563 7.0354C66.5817 7.0354 65.4878 7.85968 65.4878 9.11195V9.11272ZM69.7498 13.4868V12.4956C69.1936 13.3377 67.8958 13.656 67.2298 13.656C65.0251 13.656 62.8195 11.9178 62.8195 9.11195C62.8195 6.30691 65.0243 4.56872 67.2298 4.56872C67.7853 4.56872 69.0831 4.75413 69.7498 5.72751V4.75876H72.3069V13.4883L69.7498 13.4875V13.4868ZM62.0918 13.4868H59.5347V12.4021C59.1075 13.2056 58.0715 13.6737 56.9962 13.6737C54.7721 13.6737 52.8075 11.8977 52.8075 9.14749C52.8075 6.34553 54.7721 4.56718 56.9962 4.56718C58.07 4.56718 59.109 5.01524 59.5347 5.81944V0H62.0918V13.4868ZM59.4791 9.09264C59.4791 7.78398 58.5343 7.01686 57.4782 7.01686C56.3843 7.01686 55.4758 7.8396 55.4758 9.09264C55.4758 10.3858 56.3843 11.2047 57.4775 11.2047C58.5536 11.2063 59.4791 10.3457 59.4791 9.09264ZM46.4852 8.86706C46.4852 7.53986 47.1712 7.09102 48.0789 7.09102C48.9495 7.09102 49.5799 7.67042 49.5799 8.82921V13.4852H52.1555V8.26912C52.1555 5.78313 50.9319 4.56718 48.9859 4.56718C47.9669 4.56718 46.9479 5.14657 46.4844 6.02571V4.75567H43.9104V13.4852H46.4852V8.86706ZM38.6804 13.6351C36.2345 13.6351 34.1943 11.8405 34.1943 9.09186C34.1943 6.34167 36.2322 4.56486 38.6804 4.56486C41.1285 4.56486 43.1842 6.34167 43.1842 9.09186C43.1842 11.8421 41.1262 13.6359 38.6804 13.6359V13.6351ZM38.6804 11.0935C39.7542 11.0935 40.6449 10.307 40.6449 9.09264C40.6449 7.91453 39.7549 7.11033 38.6804 7.11033C38.1575 7.10215 37.6541 7.30912 37.2883 7.68278C36.9203 8.05834 36.7205 8.56707 36.7344 9.09264C36.7351 10.3086 37.6243 11.0935 38.6804 11.0935ZM29.5769 7.09179C30.3363 7.09179 31.0038 7.6905 31.0038 8.82998V13.4868H33.5608V8.52869C33.5608 5.89283 32.2792 4.56563 30.2251 4.56563C29.6148 4.56563 28.4652 4.75104 27.6309 6.11686C27.1488 5.10717 26.2226 4.5834 24.8537 4.5834C23.883 4.57846 22.9991 5.14156 22.5933 6.02339V4.75645H20.0161V13.486H22.5909V8.86706C22.5909 7.53986 23.314 7.09102 24.092 7.09102C24.8336 7.09102 25.4995 7.67042 25.5188 8.77358V13.486H28.0944V8.86706C28.0944 7.5978 28.7619 7.09257 29.5769 7.09257V7.09179Z" fill="#333333"/>
</svg>
