<svg width="98" height="21" viewBox="0 0 98 21" fill="none" xmlns="http://www.w3.org/2000/svg">
<path d="M96.7894 7.01013C97.5549 7.62931 96.7444 8.60876 96.0689 8.11345C95.2357 7.58433 93.3444 7.33667 93.108 8.50743C92.804 10.3538 97.7013 9.29557 97.6225 12.2902C97.5437 15.1498 93.4007 15.2173 91.8471 13.9339C91.4756 13.63 91.4868 13.1346 91.6895 12.8306C91.9821 12.5379 92.3087 12.4366 92.6914 12.7518C93.6146 13.3822 95.9901 13.8551 96.1589 12.2565C96.0126 10.5902 91.3292 11.5922 91.6782 8.39491C91.9371 6.21081 95.2358 5.81673 96.7894 7.01013ZM89.4037 7.44918V11.5247C89.4037 15.7352 82.615 15.7352 82.615 11.5247V7.44918C82.615 6.43601 84.0898 6.39094 84.0898 7.44918V11.5247C84.0898 13.7425 87.9288 13.8776 87.9288 11.5247V7.44918C87.9288 6.44719 89.4037 6.3684 89.4037 7.44918ZM42.9174 6.42475C44.8875 6.52599 46.9478 7.88824 46.9478 10.5565C46.9478 13.2246 44.8875 14.6094 42.9174 14.6094C40.8346 14.6995 38.673 13.3147 38.673 10.5565C38.673 7.7869 40.8346 6.42475 42.9174 6.42475ZM52.836 6.70612C55.6956 6.70612 56.281 10.5339 53.8943 11.4908L55.3916 13.3147C55.9771 14.1816 54.8062 15.0147 54.1307 14.1591L52.4308 11.7273H50.6632V13.765C50.6632 14.7445 49.1659 14.7783 49.1659 13.7876V7.39292C49.1659 6.99885 49.4699 6.70612 49.8414 6.70612H52.836ZM29.5085 6.60488C29.835 6.60488 30.0264 6.79627 30.2178 7.01012L32.6945 10.3538L35.2614 6.88625C35.6329 6.42475 36.5449 6.60488 36.5449 7.38166V13.72C36.5449 14.2153 36.2296 14.4968 35.8694 14.4968C35.4641 14.4968 35.1488 14.2153 35.1488 13.72V9.55449L33.28 11.9187C32.8747 12.414 32.3681 12.414 31.9966 11.9187L30.3191 9.55449V13.72C30.3191 14.2153 29.9138 14.4968 29.5085 14.4968C29.1482 14.4968 28.833 14.2153 28.833 13.72V7.38165C28.833 6.79628 29.3284 6.60488 29.5085 6.60488ZM60.9985 6.60488C62.4621 6.60488 63.7792 7.58432 63.7792 9.46442C63.7792 11.2432 62.4621 12.2339 60.9985 12.2339H59.1184V13.72C59.1184 14.2153 58.8031 14.4968 58.3978 14.4968C58.0263 14.4968 57.6323 14.2153 57.6323 13.72V7.38165C57.6323 7.01013 57.925 6.60488 58.3978 6.60488H60.9985ZM71.7503 6.70612C72.1444 6.70612 72.4484 6.99885 72.4484 7.40419V13.7988C72.4484 14.1928 72.1444 14.4968 71.7503 14.4968C71.3451 14.4968 70.9848 14.1928 70.9848 13.7988V11.3333H67.3147V13.7988C67.3147 14.1928 67.022 14.4968 66.6279 14.4968C66.1213 14.4968 65.8286 14.1928 65.8286 13.7988V7.40419C65.8286 6.99886 66.1213 6.70612 66.6279 6.70612C67.022 6.70612 67.3147 6.99885 67.3147 7.40419V9.85849H70.9848V7.40419C70.9848 6.99886 71.3451 6.70612 71.7503 6.70612ZM79.5864 6.70612C80.6221 6.70612 80.5996 8.1697 79.5864 8.1697H76.344V9.85849H79.181C80.183 9.85849 80.183 11.3333 79.181 11.3333H76.344V13.022H79.7778C80.8022 13.022 80.881 14.4968 79.7778 14.4968H75.5447C75.1507 14.4968 74.8466 14.1928 74.8466 13.7988V7.40419C74.8466 6.99885 75.1507 6.70612 75.5447 6.70612H79.5864ZM42.7935 7.88824C41.5326 7.88824 40.1591 8.77771 40.1591 10.5565C40.1591 12.324 41.5326 13.2246 42.7935 13.2246C44.0882 13.2246 45.473 12.324 45.473 10.5565C45.473 8.77771 44.0882 7.88824 42.7935 7.88824ZM60.9985 8.02338H59.1184V10.8267H60.9985C61.7527 10.8267 62.3495 10.1624 62.3495 9.46443C62.3495 8.67638 61.7527 8.02338 60.9985 8.02338ZM52.8361 8.06837H50.6632V10.4326H52.8361C54.2996 10.4326 54.3897 8.06837 52.8361 8.06837Z" fill="#3DB5E6"/>
<path d="M19.9024 12.6162C18.8049 17.0258 14.789 20.1631 10.0591 20.1631C5.30787 20.1631 1.32654 16.8402 0.273926 12.4123C1.53964 12.4123 2.7229 12.4181 3.27223 12.4181C3.53137 12.4181 3.5817 12.4226 3.59669 12.4215C4.01003 12.4012 4.52831 12.2647 4.87311 11.4263L6.18702 7.98926L9.10501 15.0149C9.36736 15.5749 9.80534 15.5352 10.0666 15.5352H10.0912C10.601 15.5352 10.8226 15.3566 11.0164 14.9872L14.3124 8.04194L15.4368 11.172L15.5053 11.3236C15.7431 11.8451 15.9141 12.3602 16.5024 12.4275C16.6236 12.4413 18.032 12.4167 19.9306 12.4167C19.9306 12.4167 19.9306 12.4289 19.9024 12.6162Z" fill="#3DB5E6"/>
<path d="M20.2247 10.0188C20.2247 10.0712 20.2247 10.2032 20.2236 10.2032H20.2214H17.1911L15.4231 5.26448C15.2657 4.89719 15.029 4.34657 14.3394 4.34657C13.9175 4.34657 13.5363 4.69501 13.32 5.27004L10.115 12.6938L7.02996 5.31508C6.72799 4.65973 6.51918 4.35152 5.91523 4.35152C5.50511 4.35152 5.20421 4.5026 4.87653 5.27894L3.04542 10.2765L0.00320896 10.2733C0.00106559 10.1973 0 10.1213 0 10.0453C0 4.48983 4.50389 0 10.0593 0C15.6148 0 20.2247 4.46332 20.2247 10.0188Z" fill="#D8292F"/>
</svg>
