<svg width="98" height="13" viewBox="0 0 98 13" fill="none" xmlns="http://www.w3.org/2000/svg">
<path d="M42.1445 8.25653H48.5952L45.1843 2.76889L38.9241 12.6908H36.075L43.6895 0.772478C44.0205 0.290929 44.5723 0 45.1843 0C45.7762 0 46.3279 0.280902 46.649 0.752415L54.2935 12.6908H51.4444L50.1001 10.4737H43.569L42.1445 8.25653ZM71.7396 10.4737V0.120387H69.3219V11.4869C69.3219 11.7979 69.4423 12.0989 69.673 12.3296C69.9037 12.5604 70.2147 12.6908 70.5558 12.6908H81.5813L83.0058 10.4737H71.7396ZM31.7411 8.6177C34.0886 8.6177 35.9948 6.72161 35.9948 4.37406C35.9948 2.02651 34.0886 0.120387 31.7411 0.120387H21.164V12.6908H23.5808V2.33751H31.5805C32.7042 2.33751 33.6071 3.25044 33.6071 4.37406C33.6071 5.49767 32.7042 6.41061 31.5805 6.41061L24.7646 6.40057L31.9818 12.6908H35.4931L30.6375 8.6177H31.7411ZM6.28626 12.6908C2.81607 12.6908 0 9.88176 0 6.41061C0 2.93944 2.81607 0.120387 6.28626 0.120387H13.5927C17.0638 0.120387 19.8779 2.93944 19.8779 6.41061C19.8779 9.88176 17.0638 12.6908 13.5927 12.6908H6.28626ZM13.4302 10.4737C15.6784 10.4737 17.4993 8.65782 17.4993 6.41061C17.4993 4.16338 15.6784 2.33751 13.4302 2.33751H6.44775C4.20052 2.33751 2.37863 4.16338 2.37863 6.41061C2.37863 8.65782 4.20052 10.4737 6.44775 10.4737H13.4302ZM59.3397 12.6908C55.8686 12.6908 53.0496 9.88176 53.0496 6.41061C53.0496 2.93944 55.8686 0.120387 59.3397 0.120387H68.0176L66.6031 2.33751H59.5003C57.253 2.33751 55.4272 4.16338 55.4272 6.41061C55.4272 8.65782 57.253 10.4737 59.5003 10.4737H68.2183L66.7937 12.6908H59.3397ZM88.9048 10.4737C87.0488 10.4737 85.4737 9.22966 84.9922 7.51415H95.3254L96.75 5.29702H84.9922C85.4737 3.59154 87.0488 2.33751 88.9048 2.33751H95.9976L97.4322 0.120387H88.7443C85.2731 0.120387 82.4541 2.93944 82.4541 6.41061C82.4541 9.88176 85.2731 12.6908 88.7443 12.6908H96.1982L97.6228 10.4737H88.9048Z" fill="#EA1B22"/>
</svg>
