<svg width="16" height="16" viewBox="0 0 16 16" fill="none" xmlns="http://www.w3.org/2000/svg">
<path d="M3.92766 9.86852C4.12404 9.67215 4.12404 9.42667 3.92766 9.23029C3.73128 9.03391 3.4858 9.03391 3.28942 9.23029L2.65119 9.86852C2.45481 10.0649 2.45481 10.3104 2.65119 10.5068C2.84757 10.7031 3.09304 10.7031 3.28942 10.5068L3.92766 9.86852Z" fill="#4F46BA"/>
<path d="M5.8419 9.86848C5.64552 9.6721 5.40004 9.6721 5.20366 9.86848L3.28889 11.7833C3.09251 11.9796 3.09251 12.2251 3.28889 12.4215C3.48527 12.6179 3.73074 12.6179 3.92712 12.4215L5.79272 10.5559C5.9891 10.3595 5.9891 10.0649 5.84182 9.86855L5.8419 9.86848Z" fill="#4F46BA"/>
<path d="M12.4206 2.01287L2.60159 5.64589C1.71789 5.98955 1.71789 7.21692 2.65069 7.51149L5.30181 8.3952C5.79275 8.54248 6.3328 8.44429 6.77465 8.14972L11.3404 4.41852L7.60918 8.98426C7.26552 9.37702 7.16733 9.91706 7.36371 10.4571L8.24742 13.1082C8.54199 13.9919 9.81845 14.041 10.113 13.1573L13.6969 3.38737C13.9914 2.50366 13.2059 1.71815 12.4204 2.01271L12.4206 2.01287Z" fill="#4F46BA"/>
<path d="M5.84216 11.7835L5.20393 12.4217C5.00755 12.6181 5.00755 12.8636 5.20393 13.06C5.4003 13.2564 5.64578 13.2564 5.84216 13.06L6.48039 12.4217C6.67677 12.2254 6.67677 11.9799 6.48039 11.7835C6.28401 11.5871 5.98944 11.5871 5.84216 11.7835Z" fill="#4F46BA"/>
</svg>
