<svg width="98" height="15" viewBox="0 0 98 15" fill="none" xmlns="http://www.w3.org/2000/svg">
<path d="M92.6861 6.56708V8.60248H94.1165V10.6219C94.1203 10.7766 94.1136 10.9417 94.0921 11.0838L94.0801 11.1527C94.0778 11.1681 94.075 11.1839 94.0716 11.2001L94.06 11.2498C94.0578 11.2582 94.0554 11.2667 94.0529 11.2753L94.0363 11.3277C93.9076 11.6996 93.5204 12.1708 92.6501 12.1708C91.7232 12.1708 91.3511 11.6298 91.2494 11.2498L91.2374 11.2001L91.2285 11.1527C91.2028 10.997 91.1919 10.8024 91.1919 10.6219V4.24353C91.1919 4.04299 91.2039 3.82559 91.2402 3.64848L91.2647 3.54086C91.2665 3.5334 91.2684 3.52583 91.2704 3.51814L91.284 3.47074C91.2864 3.46264 91.289 3.45444 91.2918 3.44616L91.3096 3.39549C91.4418 3.04308 91.7916 2.57372 92.6425 2.57372C93.2995 2.57372 93.6531 2.84137 93.8421 3.11801L93.8757 3.16992C93.8862 3.18722 93.8962 3.20448 93.9056 3.22166L93.932 3.27286L93.9552 3.32313L93.9754 3.37209L93.9927 3.41937L94.0074 3.46458L94.0196 3.50736L94.0296 3.54731L94.0376 3.58407C94.0413 3.60234 94.0446 3.62175 94.0477 3.64192L94.056 3.7044C94.0573 3.71508 94.0584 3.72586 94.0596 3.7367L94.0681 3.83467L94.0739 3.92863L94.0789 4.05674L94.0801 4.12239V4.89691H97.5948L97.5955 4.41477L97.5977 4.24234L97.5971 4.10868L97.594 3.95305L97.5912 3.86926L97.5849 3.73866L97.5759 3.60488L97.5681 3.51543C97.3304 1.15925 95.5594 0.252725 93.4045 0.0949822L93.2603 0.0855677L93.115 0.0783255C93.0421 0.0752399 92.9688 0.0729517 92.8953 0.0714348L92.7477 0.0694219C92.723 0.0691725 92.6983 0.0691725 92.6736 0.0691725L92.5253 0.0701832C92.5007 0.0705213 92.4761 0.0709449 92.4516 0.071455L92.3048 0.0755596L92.1591 0.0817833L92.0144 0.0901709L91.871 0.100768C91.8234 0.104673 91.776 0.108954 91.7288 0.113618L91.588 0.128768C91.5646 0.131487 91.5413 0.134304 91.5181 0.137219L91.3793 0.155902C91.0574 0.202292 90.7476 0.268377 90.454 0.356733L90.3292 0.395971C88.9673 0.842749 87.9777 1.79265 87.7745 3.51543L87.7536 3.70667L87.7392 3.85473L87.7258 4.00997L87.7146 4.16441C87.7083 4.26533 87.7042 4.36042 87.7042 4.43904L87.7045 10.3818L87.7055 10.4555L87.7086 10.5676L87.7121 10.6462L87.7169 10.7302L87.7232 10.8215L87.7312 10.922L87.7467 11.0946L87.7598 11.2269C87.9571 13.4164 89.6166 14.3904 91.6472 14.6202L91.7895 14.635C92.0275 14.6578 92.2703 14.6706 92.5159 14.6742L92.6637 14.6753L92.8123 14.6742C93.0594 14.6706 93.3032 14.6578 93.5422 14.635L93.6849 14.6202C95.7221 14.3904 97.3709 13.4164 97.5715 11.2269L97.5878 11.0338L97.5998 10.8705L97.6106 10.6874L97.6171 10.5298L97.6228 10.3065V6.56708H92.6861ZM68.4515 0.444603H64.922V10.769C64.9275 10.949 64.922 11.1511 64.8909 11.2993L64.8806 11.3442L64.8677 11.3921C64.863 11.4084 64.8578 11.4252 64.8521 11.4424L64.8337 11.4947C64.7005 11.8497 64.3613 12.3129 63.5498 12.3129C62.7888 12.3129 62.4413 11.8948 62.2958 11.5487L62.2745 11.4947C62.2712 11.4859 62.2681 11.477 62.265 11.4683L62.2484 11.4169L62.2346 11.3678C62.2326 11.3598 62.2306 11.352 62.2288 11.3442L62.219 11.2993C62.1837 11.1511 62.1792 10.949 62.1837 10.769V0.444603H58.6552V10.4486L58.6546 10.5291L58.6558 10.6697L58.6607 10.8766L58.6704 11.1281L58.6772 11.2547L58.6817 11.3219L58.6862 11.3713C58.8591 13.2222 59.945 14.1856 61.4784 14.5888L61.6091 14.6215C61.8944 14.6896 62.1943 14.7392 62.5059 14.7723L62.6505 14.7865L62.7968 14.7983L62.9445 14.8079C63.0188 14.8121 63.0936 14.8155 63.169 14.8181L63.3203 14.8223L63.473 14.8243C63.4985 14.8246 63.5241 14.8246 63.5498 14.8246L63.7034 14.8236C63.7289 14.8232 63.7543 14.8228 63.7797 14.8223L63.9313 14.8181C64.0068 14.8155 64.0817 14.8121 64.1561 14.8079L64.3041 14.7983L64.4506 14.7865L64.5955 14.7723C66.6598 14.5531 68.2083 13.6133 68.4216 11.3713L68.4244 11.3491L68.4302 11.2903L68.4388 11.1732L68.4464 11.0314L68.4506 10.929L68.4549 10.7718L68.4561 10.6697L68.4557 10.5737L68.4534 10.4872C68.4529 10.4738 68.4523 10.4609 68.4515 10.4486V0.444603ZM36.0211 0.444603L34.2604 11.3538L32.5008 0.444603H26.8074L26.5054 14.4006H29.9934L30.0879 1.48112L32.4878 14.4006H36.0267L38.4287 1.48112L38.5235 14.4006H42.0203L41.7081 0.444603H36.0211ZM14.9413 0.444603L12.3561 14.4006H16.126L18.0741 1.48112L19.9754 14.4006H23.7192L21.1447 0.444603H14.9413ZM80.7868 11.6808L77.5002 0.444603H72.3213V14.2551H75.7473L75.5483 2.65938L79.0779 14.2551H84.0449V0.444603H80.5965L80.7868 11.6808ZM49.0969 4.0767C49.0349 3.80108 49.0528 3.50826 49.0849 3.35522C49.0939 3.31461 49.1047 3.27366 49.1173 3.23277L49.1378 3.17154C49.277 2.78464 49.6028 2.42122 50.3497 2.42122C51.1557 2.42122 51.6283 2.9237 51.6283 3.67779V4.53116H55.069V3.55844C55.069 1.36331 53.6323 0.51889 52.0972 0.22293L51.9708 0.199823L51.8442 0.179087L51.7174 0.160623L51.5907 0.144333L51.4642 0.130116L51.3381 0.117874C51.2962 0.114112 51.2543 0.110663 51.2126 0.107509L51.0877 0.0989209L50.9638 0.0920109L50.8408 0.08668L50.7191 0.0828293L50.5988 0.0803598L50.4212 0.0790287L50.3429 0.0793046L50.1872 0.0815257C50.1614 0.0820829 50.1356 0.0827342 50.1099 0.0834803L49.9563 0.0891004C49.9053 0.0913571 49.8545 0.0939992 49.804 0.0970329L49.6533 0.107315C47.5543 0.267881 45.9162 1.13009 45.5886 3.15201C45.4916 3.76775 45.4676 4.31432 45.6219 5.01178C45.8648 6.15789 46.8196 6.97347 47.9156 7.65753L48.0852 7.76176C48.1136 7.77897 48.1421 7.7961 48.1707 7.81315L48.3428 7.91457L48.516 8.01432L48.6898 8.11256L48.9507 8.25743L49.6361 8.63304L49.8026 8.72537L49.9663 8.81741L50.1267 8.9093L50.2833 9.00121C51.0302 9.44575 51.6287 9.89659 51.8441 10.4355C51.9632 10.7557 51.9372 11.1594 51.8796 11.4169L51.8697 11.4584C51.8554 11.5203 51.8375 11.5823 51.815 11.6432L51.7909 11.7037C51.6324 12.074 51.2859 12.3898 50.5246 12.3898C49.6562 12.3898 49.1334 11.8905 49.1334 11.138L49.1323 9.79866H45.4289V10.8633C45.4289 13.3621 47.0143 14.4476 48.9999 14.7699L49.1477 14.7924C49.2467 14.8064 49.3466 14.8187 49.4472 14.8292L49.5988 14.8437C49.7762 14.859 49.9557 14.8692 50.1366 14.8745L50.292 14.8779C50.3179 14.8783 50.3439 14.8786 50.3699 14.8788L50.4479 14.8791C50.4998 14.8791 50.5515 14.8787 50.6031 14.878L50.7571 14.8746C50.7827 14.8738 50.8082 14.873 50.8336 14.8721L50.9857 14.8653C51.0362 14.8626 51.0864 14.8596 51.1364 14.8561L51.2857 14.8446C51.3847 14.8361 51.4827 14.8261 51.5795 14.8144L51.724 14.7956L51.8668 14.7743C51.9141 14.7668 51.9611 14.7588 52.0078 14.7505L52.1469 14.7241C53.8277 14.3873 55.0782 13.4742 55.3294 11.7185C55.364 11.4566 55.3852 11.2148 55.3967 10.9937L55.4029 10.8494C55.4037 10.8259 55.4044 10.8026 55.405 10.7796L55.4073 10.6446V10.5159L55.4051 10.3935L55.4012 10.2775L55.3955 10.1679C55.3945 10.1502 55.3934 10.1328 55.3922 10.1156L55.3845 10.0157L55.3758 9.92233L55.3663 9.83556L55.351 9.71785L55.3351 9.61522L55.3144 9.50212L55.3048 9.45584C55.0625 8.24053 53.9985 7.38211 52.8165 6.67552L52.6469 6.57559L52.4761 6.47759L52.3047 6.38139L52.0473 6.24017L51.7058 6.05695L51.1235 5.74723L50.8839 5.61759C50.8577 5.60326 50.8316 5.58895 50.8058 5.57467L50.6524 5.48916L50.5035 5.40399C49.7701 4.97876 49.2157 4.56124 49.0969 4.0767ZM3.70951 4.04247C3.64617 3.7787 3.65607 3.50124 3.68857 3.34001L3.70202 3.27964L3.71728 3.21991C3.83352 2.80083 4.15132 2.36889 4.97271 2.36889C5.78898 2.36889 6.26961 2.87621 6.26961 3.63639V4.50015H9.75063V3.51973C9.75063 1.42497 8.44747 0.545237 6.9913 0.201107L6.86432 0.172516C6.75822 0.149788 6.6515 0.129768 6.54459 0.1122L6.41623 0.0922769L6.28786 0.0746074L6.15964 0.0590918L6.03174 0.0456309C5.98918 0.0414753 5.9467 0.0376457 5.90433 0.0341254L5.77758 0.0244761L5.65165 0.0165837L5.52672 0.0103488L5.40294 0.0056723L5.2805 0.00245484L5.09969 0H5.04027C4.98808 0 4.9361 0.000364721 4.88432 0.00110007L4.72965 0.00442391C4.62697 0.00738894 4.52518 0.0118601 4.42438 0.0178847L4.27393 0.0280925C4.24898 0.02999 4.22409 0.031986 4.19927 0.0340813L4.05116 0.0478507C4.00206 0.0528417 3.95323 0.0582358 3.90469 0.0640389L3.75992 0.0826813C3.64002 0.0992489 3.52197 0.11841 3.40594 0.140257L3.26769 0.167768L3.13146 0.197892L2.99731 0.230666C2.95294 0.242036 2.90894 0.253854 2.8653 0.266125L2.73551 0.304303C1.38456 0.71958 0.410987 1.59054 0.165225 3.10183C0.0637964 3.72743 0.0464136 4.27776 0.193002 4.98293C0.451077 6.20151 1.50364 7.05015 2.6812 7.76322L2.85434 7.86662C2.88332 7.88371 2.91236 7.90072 2.94144 7.91765L3.11638 8.01847L3.37981 8.16687L3.7305 8.36035L4.24777 8.64381L4.49905 8.78369L4.74334 8.92307L4.90153 9.01598C4.92755 9.03148 4.95339 9.04698 4.97905 9.0625L5.13065 9.15576C5.77714 9.56068 6.28347 9.97775 6.47892 10.4667C6.60692 10.7847 6.57699 11.1883 6.5165 11.4541L6.50615 11.4971C6.49122 11.5583 6.47287 11.6196 6.45019 11.6799L6.42603 11.7398C6.26341 12.1167 5.91441 12.4399 5.14313 12.4399C4.27131 12.4399 3.74983 11.9321 3.74983 11.1692L3.74499 9.82625H0V10.8934C0 13.8889 2.25848 14.8735 4.75966 14.9474L4.91628 14.9509L5.07342 14.952L5.22881 14.9509C5.30621 14.9498 5.38314 14.9479 5.45959 14.9451L5.61181 14.9383C5.68757 14.9344 5.76282 14.9296 5.83751 14.9239L5.98614 14.9114L6.13321 14.8965C6.18196 14.8911 6.23045 14.8853 6.27866 14.8791L6.42242 14.8593C6.47005 14.8523 6.51738 14.8449 6.56442 14.837L6.7046 14.8122C8.44514 14.4863 9.7423 13.563 10.0035 11.7572C10.0395 11.4992 10.062 11.2605 10.0745 11.0418L10.0815 10.899L10.0857 10.7621C10.0867 10.7174 10.0873 10.6738 10.0875 10.6312L10.087 10.5063L10.0846 10.3875L10.0803 10.2749L10.0746 10.1684L10.0676 10.0681L10.0595 9.97413L10.0458 9.84493L10.0312 9.73004L10.0114 9.59937L9.98879 9.47269C9.74728 8.27176 8.71505 7.41739 7.5537 6.71468L7.3829 6.6129C7.35431 6.59611 7.32566 6.57941 7.29696 6.56278L7.12426 6.464L6.95087 6.36705L6.77724 6.27178L6.60385 6.17807L5.83879 5.77197L5.59414 5.64084L5.43526 5.55421L5.2803 5.46805L5.12971 5.38223C5.105 5.36794 5.0805 5.35366 5.0562 5.33939L4.91305 5.25381C4.28094 4.86877 3.81678 4.48354 3.70951 4.04247Z" fill="#1428A0"/>
</svg>
