<svg width="22" height="24" viewBox="0 0 22 24" fill="none" xmlns="http://www.w3.org/2000/svg">
<path fill-rule="evenodd" clip-rule="evenodd" d="M10.8909 0.0722049L20.9067 5.05292C21.1516 5.16213 21.2608 5.4071 21.2608 5.65206C20.9883 10.1154 19.8452 13.7082 18.0488 16.6477C16.2524 19.5872 13.8303 21.8194 10.9448 23.534C10.7274 23.6697 10.4825 23.6432 10.2916 23.534C7.43361 21.8193 4.98428 19.5872 3.18764 16.6477C1.41884 13.6807 0.275563 10.088 0.00303743 5.62436C-0.0245209 5.35184 0.138786 5.13444 0.357216 5.02522L10.3456 0.0719435C10.5089 -0.037268 10.7273 -0.00970971 10.8906 0.0719435L10.8909 0.0722049ZM11.6258 15.069H9.58442C9.50277 15.069 9.44867 15.0414 9.36702 15.0414C9.04041 14.9322 8.8771 14.5791 8.98632 14.2524L9.63955 12.402C9.31293 12.2387 9.01389 11.9661 8.82301 11.6671C8.60561 11.3405 8.46884 10.9322 8.46884 10.524C8.46884 9.92482 8.71379 9.40838 9.09449 9.02663C9.47519 8.64593 9.99268 8.40097 10.5918 8.40097C11.1634 8.40097 11.7074 8.64593 12.0891 9.02663C12.4698 9.40733 12.7148 9.92482 12.7148 10.524C12.7148 10.9322 12.5791 11.3405 12.3882 11.6671C12.1973 11.9661 11.8983 12.2387 11.5717 12.402L12.1973 14.2259C12.2249 14.3076 12.2514 14.3892 12.2514 14.4709C12.2514 14.7965 11.9789 15.069 11.6258 15.069V15.069Z" fill="#00E1F0"/>
</svg>
