<svg width="98" height="20" viewBox="0 0 98 20" fill="none" xmlns="http://www.w3.org/2000/svg">
<path d="M17.6148 10.704L17.6277 10.705L18.9771 10.846C19.0718 10.8562 19.1588 10.9025 19.2203 10.9747L19.2303 10.987L19.2175 10.9934C19.2805 11.073 19.3083 11.1749 19.2944 11.2755C18.9996 13.6193 17.8887 15.7843 16.1567 17.3907C14.3595 19.0575 11.999 19.9836 9.54781 19.9836C8.35732 19.9855 7.17695 19.7663 6.06676 19.3373L6.00628 19.3137C5.91541 19.2801 5.8424 19.211 5.80375 19.1227L5.79793 19.1086C5.76009 19.0207 5.75798 18.9217 5.79163 18.8326L6.32424 17.5331C6.39641 17.3494 6.60094 17.2569 6.78565 17.322L6.79793 17.3266C9.52032 18.3778 12.6037 17.7857 14.7432 15.801C16.1051 14.5497 16.9832 12.8592 17.2239 11.0255C17.2494 10.8361 17.4137 10.6984 17.6019 10.7034L17.6148 10.704ZM49.4827 5.18911C50.6333 5.18911 51.5331 5.54014 52.1077 6.21431L52.1269 6.23716V5.66665C52.1346 5.50741 52.2579 5.37872 52.4153 5.36317L52.4282 5.36216H53.9634C54.1213 5.37308 54.247 5.49741 54.2606 5.6539L54.2615 5.66665V14.1889C54.3111 15.3906 53.9418 16.5722 53.2166 17.5317C52.3897 18.5381 51.1334 19.0477 49.4827 19.0477C47.188 19.0477 45.3771 17.5958 45.079 15.5221C45.0642 15.3724 45.1554 15.2332 45.2971 15.1863L45.3098 15.1824L46.8097 14.8299C46.8175 14.8281 46.8254 14.8266 46.8333 14.8255C46.998 14.8013 47.151 14.9152 47.1751 15.0799C47.3121 16.2431 48.3119 17.1109 49.4827 17.083C51.2565 17.083 52.0909 16.1815 52.1074 14.2975L52.1077 14.2401V13.4934C51.4428 14.2391 50.4813 14.6511 49.4827 14.6183C46.9315 14.6183 45.0822 12.6376 45.0822 9.91331C45.0589 8.6876 45.4905 7.49662 46.2937 6.57045C47.1096 5.67413 48.2708 5.17113 49.4827 5.18911ZM3.27914 15.5542L3.29817 15.554L3.31726 15.5542C3.92965 15.5612 4.42271 16.0564 4.42937 16.6665L4.42942 16.6856C4.42942 16.6919 4.42935 16.6983 4.42924 16.7046C4.41857 17.3294 3.90354 17.8273 3.27878 17.8167C2.65402 17.806 2.15619 17.291 2.16674 16.6662C2.17719 16.0542 2.67163 15.5639 3.27914 15.5542ZM76.0575 5.07053L76.1362 5.07111C78.8788 5.10898 80.5781 7.01801 80.5781 10.0736C80.5781 10.2352 80.5693 10.3968 80.5522 10.5575C80.5383 10.7054 80.4174 10.8194 80.2703 10.8264L80.2576 10.8267H73.7384C73.7786 12.1959 74.9104 13.2793 76.2803 13.2594C77.3419 13.3261 78.3094 12.651 78.6134 11.6312C78.669 11.4849 78.8269 11.4061 78.9762 11.4481L78.9883 11.4518L80.2895 11.9101C80.3614 11.9332 80.4202 11.9842 80.4534 12.0512L80.4593 12.0639C80.4951 12.1345 80.5011 12.2165 80.4758 12.2915C79.8711 14.081 78.1681 15.265 76.2803 15.2081C75.0424 15.2204 73.8511 14.7368 72.9727 13.8652C72.0134 12.8561 71.5016 11.5032 71.5527 10.112C71.5527 6.98666 73.7989 5.10835 75.9924 5.0711L76.0575 5.07053ZM39.1689 5.07053H39.1721C41.9637 5.07053 43.6977 6.98714 43.6977 10.0736C43.6974 10.2352 43.6889 10.3968 43.672 10.5575C43.659 10.7062 43.5373 10.821 43.3895 10.8265L43.3771 10.8267H36.8581C36.8982 12.1997 38.036 13.2846 39.4093 13.2594C40.4716 13.3273 41.4397 12.6518 41.7426 11.6312C41.7968 11.4837 41.9559 11.4044 42.1054 11.448L42.1175 11.4518L43.4188 11.9101C43.4949 11.9346 43.5567 11.9907 43.5886 12.0639C43.6191 12.1367 43.6191 12.2187 43.5886 12.2915C42.9847 14.0798 41.2832 15.2636 39.3965 15.2081C38.1566 15.2221 36.9628 14.7384 36.0824 13.8652C35.1247 12.8553 34.6131 11.5029 34.6626 10.112C34.6626 6.95509 36.9542 5.07053 39.1689 5.07053ZM29.2973 5.06729C30.5505 5.06729 31.5633 5.37178 32.3133 5.97109C32.8204 6.37525 33.1963 6.92062 33.3934 7.5384L33.394 7.54088C33.4197 7.64738 33.3571 7.75466 33.2533 7.78553L33.2428 7.78836L31.6883 8.3012C31.6193 8.32852 31.5425 8.32852 31.4736 8.3012C31.4147 8.27371 31.3704 8.22237 31.3518 8.16019L31.3435 8.1296C31.2019 7.62347 30.739 6.81084 29.2973 6.81084C28.2717 6.81084 27.6564 7.40059 27.6564 7.97109L27.6566 7.99368C27.6643 8.36464 27.866 8.83029 28.7506 9.00732L28.7781 9.0127L30.4896 9.33319C32.3807 9.71399 33.4708 10.7418 33.4924 12.1742L33.4927 12.2177L33.4863 12.1922L33.4859 12.2356C33.4584 13.6715 32.0695 15.1824 29.5121 15.1824C26.5154 15.1824 25.3391 13.4869 25.1212 12.487C25.1069 12.3824 25.1708 12.2836 25.2706 12.2528L25.2814 12.2498L26.884 11.7498C26.9126 11.7452 26.9418 11.7452 26.9705 11.7498C27.0112 11.7491 27.0515 11.7577 27.0883 11.775L27.1019 11.7819C27.1607 11.8101 27.2042 11.8629 27.2204 11.9261C27.4224 12.8876 28.291 13.4613 29.5409 13.4613C30.7044 13.4613 31.2332 12.8523 31.2332 12.3011C31.2332 11.7559 30.7723 11.3517 29.9778 11.1848L29.9512 11.1793L28.1532 10.83C26.4769 10.5127 25.4321 9.47101 25.4321 8.11528C25.4321 6.46468 27.2044 5.06729 29.2973 5.06729ZM93.9369 2.39751H95.3376C95.5028 2.40743 95.6324 2.54146 95.6386 2.70563L95.6388 2.718V5.34935H97.3243C97.4883 5.36088 97.6162 5.49432 97.6225 5.65725L97.6228 5.66984V7.06724L97.6227 7.07941C97.618 7.23608 97.4934 7.36333 97.3367 7.37134L97.3243 7.37173H95.6388V12.0479C95.6388 12.8235 95.9461 13.144 96.7377 13.144C96.898 13.1412 97.0583 13.1291 97.217 13.1076L97.2764 13.0991C97.3638 13.0843 97.4529 13.109 97.52 13.1665C97.5805 13.2226 97.6167 13.2998 97.6221 13.3818L97.6228 13.3972V14.7145C97.6239 14.8487 97.5365 14.9676 97.4078 15.0062C97.0387 15.1095 96.6575 15.1614 96.2743 15.1604L96.2221 15.16C94.5497 15.16 93.506 14.0951 93.4853 12.3727L93.485 12.3203V7.39097H92.0266C91.8676 7.3816 91.7399 7.25685 91.7262 7.09932L91.7253 7.08648V5.68265C91.7248 5.51704 91.8509 5.37921 92.0143 5.36314L92.0266 5.36216L92.4186 5.36211L92.4604 5.36137C92.9182 5.34822 93.621 5.16273 93.6354 4.14115L93.6356 4.10896V2.718C93.6351 2.55238 93.7612 2.41455 93.9246 2.39849L93.9369 2.39751ZM66.7148 5.06911L66.7515 5.07053H66.7482C68.3983 5.07053 70.064 6.22019 70.0971 8.73104L70.0976 8.80755V14.7433C70.0901 14.9026 69.9664 15.0312 69.8092 15.0468L69.7964 15.0478H68.261C68.102 15.0384 67.9748 14.9137 67.9606 14.7562L67.9597 14.7433V8.9999L67.9595 8.95566C67.9501 8.22385 67.7014 7.048 66.194 7.048C65.08 7.048 64.2866 7.915 64.2708 9.17628L64.2706 9.21462V14.7433C64.2631 14.9026 64.1399 15.0312 63.9822 15.0468L63.9693 15.0478H62.4153C62.2557 15.0384 62.1286 14.9137 62.1149 14.7562L62.114 14.7433V8.9999L62.1137 8.95566C62.1044 8.22385 61.8556 7.048 60.3477 7.048C59.1896 7.048 58.4054 7.9087 58.3899 9.19476L58.3896 9.23386V14.7433C58.3816 14.9026 58.2584 15.0312 58.1012 15.0468L58.0884 15.0478H56.553C56.3951 15.0369 56.2695 14.9125 56.2559 14.7561L56.2551 14.7433V5.64741C56.2626 5.4893 56.3842 5.36105 56.5403 5.34405L56.553 5.34292H58.0307C58.1896 5.35229 58.3173 5.47704 58.3311 5.63457L58.3319 5.64741V6.19549C58.9965 5.46677 59.9415 5.05734 60.9277 5.07053C62.07 5.03706 63.1359 5.64098 63.6939 6.63774C64.3584 5.62243 65.504 5.02845 66.7148 5.06911ZM89.7029 6.20186C90.2911 6.97672 90.5943 7.92975 90.5631 8.90112L90.5616 8.94217V14.7433C90.5541 14.9015 90.4325 15.0297 90.2764 15.0467L90.2636 15.0478H88.7096C88.5501 15.0384 88.4229 14.9137 88.4087 14.7562L88.4078 14.7433V9.2531C88.4078 7.81722 87.7316 7.08648 86.4497 7.08648C85.8834 7.06817 85.342 7.32044 84.9912 7.76593C84.6521 8.25494 84.4769 8.83855 84.4905 9.43285L84.4915 9.46782V14.7433C84.4835 14.9026 84.3603 15.0312 84.2031 15.0468L84.1903 15.0478H82.639C82.48 15.0384 82.3523 14.9137 82.3386 14.7562L82.3377 14.7433V5.64098C82.3452 5.48174 82.4689 5.3531 82.6262 5.3375L82.639 5.33649H84.1551C84.313 5.34741 84.4386 5.47179 84.4522 5.62823L84.4531 5.64098V6.28201C85.1034 5.49415 86.0791 5.04772 87.1005 5.07053C88.0955 5.02799 89.0553 5.44517 89.7029 6.20186ZM0.371791 11.0928H11.4068C11.6096 11.0945 11.7734 11.2569 11.7785 11.4581L11.7786 11.471V12.8524C11.7803 13.0552 11.6207 13.2217 11.4196 13.2302L11.4067 13.2306H0.371791C0.168971 13.2288 0.00520576 13.0664 0 12.8652V12.8523V11.471V11.4581C0.00509715 11.2613 0.161977 11.1016 0.358624 11.0931L0.371791 11.0928ZM49.7488 7.10572C48.236 7.10572 47.2745 8.18262 47.2745 9.91331C47.2745 11.6441 48.2231 12.7177 49.7488 12.7177C51.2038 12.7177 52.1846 11.5896 52.1846 9.91331C52.1846 8.23386 51.2038 7.10572 49.7488 7.10572ZM36.9263 8.97832L36.9222 9.0127H41.4829C41.3719 7.79429 40.5132 7.03449 39.2272 7.01942L39.1881 7.01919C38.055 7.00076 37.09 7.82956 36.9309 8.94444L36.9263 8.97832ZM73.8195 8.97832L73.8154 9.0127H78.3764C78.2654 7.79429 77.4066 7.03449 76.1205 7.01942L76.0813 7.01919C74.9483 7.00076 73.9832 7.82956 73.8241 8.94444L73.8195 8.97832ZM12.7881 0.551377C12.8837 0.585845 12.9611 0.657529 13.0029 0.750102C13.0412 0.843555 13.0412 0.948332 13.0029 1.04173L12.5221 2.32379C12.4555 2.51389 12.2477 2.61421 12.0574 2.54813C9.53879 1.66924 6.74412 2.16861 4.68579 3.86538C3.40301 4.9391 2.49218 6.39064 2.0833 8.0127C2.04097 8.17652 1.89348 8.29108 1.72433 8.29158H1.64099L0.320502 7.97428C0.222047 7.95113 0.137499 7.88852 0.0865401 7.80117H0.0801083C0.0266753 7.71387 0.011613 7.60838 0.0384944 7.50954C0.562874 5.43313 1.7362 3.57826 3.38773 2.21478C6.01386 0.0527792 9.57958 -0.578192 12.7881 0.551377ZM7.90046 6.08972H18.9354C19.1332 6.09133 19.2949 6.24604 19.3066 6.44194L19.3072 6.45506V7.83646C19.3089 8.03928 19.1494 8.20584 18.9483 8.21434L18.9354 8.21467H7.90046C7.69897 8.21123 7.53707 8.04944 7.53196 7.84955L7.53184 7.83646V6.46787C7.53009 6.26638 7.68766 6.10044 7.88737 6.09017L7.90046 6.08972ZM15.5609 1.87504L15.5799 1.87489L15.599 1.87505C16.2114 1.88207 16.7044 2.37725 16.7111 2.98733L16.7111 3.00644C16.7111 3.01281 16.7111 3.01919 16.711 3.02551C16.7004 3.65027 16.1853 4.1481 15.5605 4.13749C14.9357 4.12688 14.4379 3.61179 14.4485 2.98709C14.4589 2.37502 14.9534 1.88482 15.5609 1.87504Z" fill="#4FB58B"/>
</svg>
