<svg width="19" height="19" viewBox="0 0 19 19" fill="none" xmlns="http://www.w3.org/2000/svg">
<g clip-path="url(#clip0_63_1063)">
<path d="M7.59183 12.6959C7.63985 12.6554 7.68863 12.6134 7.73366 12.5691C5.22649 15.029 1.13817 13.8809 0.179877 10.4117V10.4064C-1.1056 5.68623 4.31472 2.1007 7.73216 5.40257C7.80345 5.47836 12.5244 10.513 12.2242 10.1925H12.2377C12.9424 10.9189 13.9614 10.8394 14.5678 10.2045C15.2199 9.52315 15.2432 8.41102 14.603 7.71838C13.5922 6.55447 11.6074 7.42421 11.7972 9.14944L10.6611 7.99228L9.34332 6.73232C9.61497 6.19276 9.97143 5.72075 10.4179 5.31252C10.3699 5.35379 10.3211 5.39656 10.2761 5.43934C12.793 2.97044 16.8783 4.1456 17.8299 7.59981V7.60431C19.1184 12.3237 13.692 15.9093 10.2776 12.6074C10.2078 12.5324 5.48989 7.46624 5.78856 7.78742L5.78555 7.77616C5.77355 7.77616 5.77355 7.7649 5.77355 7.7649C5.03363 7.00172 4.03031 7.11654 3.44348 7.74164C2.79061 8.42303 2.76809 9.53516 3.40971 10.2173C4.37626 11.3542 6.4039 10.5115 6.2133 8.75171C6.28684 8.82751 8.83153 11.4397 8.66944 11.2739C8.25745 12.0956 7.79669 12.4731 7.59183 12.6959Z" fill="#0038FF"/>
</g>
<defs>
<clipPath id="clip0_63_1063">
<rect width="18.0102" height="18.0102" fill="white"/>
</clipPath>
</defs>
</svg>
