<svg width="133" height="133" viewBox="0 0 133 133" fill="none" xmlns="http://www.w3.org/2000/svg">
<g opacity="0.3">
<path d="M0 0H3.58632V3.58632H0V0Z" fill="#C4C4C4"/>
<path d="M21.5179 0H25.1043V3.58632H21.5179V0Z" fill="#C4C4C4"/>
<path d="M43.0359 0H46.6222V3.58632H43.0359V0Z" fill="#C4C4C4"/>
<path d="M64.5538 0H68.1402V3.58632H64.5538V0Z" fill="#C4C4C4"/>
<path d="M86.0718 0H89.6581V3.58632H86.0718V0Z" fill="#C4C4C4"/>
<path d="M107.59 0H111.176V3.58632H107.59V0Z" fill="#C4C4C4"/>
<path d="M129.108 0H132.694V3.58632H129.108V0Z" fill="#C4C4C4"/>
<path d="M0 21.5179H3.58632V25.1043H0V21.5179Z" fill="#C4C4C4"/>
<path d="M21.5179 21.5179H25.1043V25.1043H21.5179V21.5179Z" fill="#C4C4C4"/>
<path d="M43.0359 21.5179H46.6222V25.1043H43.0359V21.5179Z" fill="#C4C4C4"/>
<path d="M64.5538 21.5179H68.1402V25.1043H64.5538V21.5179Z" fill="#C4C4C4"/>
<path d="M86.0718 21.5179H89.6581V25.1043H86.0718V21.5179Z" fill="#C4C4C4"/>
<path d="M107.59 21.5179H111.176V25.1043H107.59V21.5179Z" fill="#C4C4C4"/>
<path d="M129.108 21.5179H132.694V25.1043H129.108V21.5179Z" fill="#C4C4C4"/>
<path d="M0 43.0359H3.58632V46.6222H0V43.0359Z" fill="#C4C4C4"/>
<path d="M21.5179 43.0359H25.1043V46.6222H21.5179V43.0359Z" fill="#C4C4C4"/>
<path d="M43.0359 43.0359H46.6222V46.6222H43.0359V43.0359Z" fill="#C4C4C4"/>
<path d="M64.5538 43.0359H68.1402V46.6222H64.5538V43.0359Z" fill="#C4C4C4"/>
<path d="M86.0718 43.0359H89.6581V46.6222H86.0718V43.0359Z" fill="#C4C4C4"/>
<path d="M107.59 43.0359H111.176V46.6222H107.59V43.0359Z" fill="#C4C4C4"/>
<path d="M129.108 43.0359H132.694V46.6222H129.108V43.0359Z" fill="#C4C4C4"/>
<path d="M0 64.5538H3.58632V68.1402H0V64.5538Z" fill="#C4C4C4"/>
<path d="M21.5179 64.5538H25.1043V68.1402H21.5179V64.5538Z" fill="#C4C4C4"/>
<path d="M43.0359 64.5538H46.6222V68.1402H43.0359V64.5538Z" fill="#C4C4C4"/>
<path d="M64.5538 64.5538H68.1402V68.1402H64.5538V64.5538Z" fill="#C4C4C4"/>
<path d="M86.0718 64.5538H89.6581V68.1402H86.0718V64.5538Z" fill="#C4C4C4"/>
<path d="M107.59 64.5538H111.176V68.1402H107.59V64.5538Z" fill="#C4C4C4"/>
<path d="M129.108 64.5538H132.694V68.1402H129.108V64.5538Z" fill="#C4C4C4"/>
<path d="M0 86.0718H3.58632V89.6581H0V86.0718Z" fill="#C4C4C4"/>
<path d="M21.5179 86.0718H25.1043V89.6581H21.5179V86.0718Z" fill="#C4C4C4"/>
<path d="M43.0359 86.0718H46.6222V89.6581H43.0359V86.0718Z" fill="#C4C4C4"/>
<path d="M64.5538 86.0718H68.1402V89.6581H64.5538V86.0718Z" fill="#C4C4C4"/>
<path d="M86.0718 86.0718H89.6581V89.6581H86.0718V86.0718Z" fill="#C4C4C4"/>
<path d="M107.59 86.0718H111.176V89.6581H107.59V86.0718Z" fill="#C4C4C4"/>
<path d="M129.108 86.0718H132.694V89.6581H129.108V86.0718Z" fill="#C4C4C4"/>
<path d="M0 107.59H3.58632V111.176H0V107.59Z" fill="#C4C4C4"/>
<path d="M21.5179 107.59H25.1043V111.176H21.5179V107.59Z" fill="#C4C4C4"/>
<path d="M43.0359 107.59H46.6222V111.176H43.0359V107.59Z" fill="#C4C4C4"/>
<path d="M64.5538 107.59H68.1402V111.176H64.5538V107.59Z" fill="#C4C4C4"/>
<path d="M86.0718 107.59H89.6581V111.176H86.0718V107.59Z" fill="#C4C4C4"/>
<path d="M107.59 107.59H111.176V111.176H107.59V107.59Z" fill="#C4C4C4"/>
<path d="M129.108 107.59H132.694V111.176H129.108V107.59Z" fill="#C4C4C4"/>
<path d="M0 129.108H3.58632V132.694H0V129.108Z" fill="#C4C4C4"/>
<path d="M21.5179 129.108H25.1043V132.694H21.5179V129.108Z" fill="#C4C4C4"/>
<path d="M43.0359 129.108H46.6222V132.694H43.0359V129.108Z" fill="#C4C4C4"/>
<path d="M64.5538 129.108H68.1402V132.694H64.5538V129.108Z" fill="#C4C4C4"/>
<path d="M86.0718 129.108H89.6581V132.694H86.0718V129.108Z" fill="#C4C4C4"/>
<path d="M107.59 129.108H111.176V132.694H107.59V129.108Z" fill="#C4C4C4"/>
<path d="M129.108 129.108H132.694V132.694H129.108V129.108Z" fill="#C4C4C4"/>
</g>
</svg>
