<svg width="19" height="19" viewBox="0 0 19 19" fill="none" xmlns="http://www.w3.org/2000/svg">
<g clip-path="url(#clip0_63_1057)">
<path d="M18.0057 18.0101V18.0093H18.0102V11.4041C18.0102 8.17275 17.3146 5.68359 13.5369 5.68359C11.7209 5.68359 10.5022 6.68016 10.0047 7.62494H9.95214V5.98526H6.37036V18.0093H10.1V12.0555C10.1 10.4878 10.3971 8.97196 12.3385 8.97196C14.2513 8.97196 14.2798 10.761 14.2798 12.156V18.0101H18.0057Z" fill="#0038FF"/>
<path d="M0.297363 5.98633H4.03148V18.0104H0.297363V5.98633Z" fill="#0038FF"/>
<path d="M2.16273 0C0.968799 0 0 0.968799 0 2.16273C0 3.35665 0.968799 4.34571 2.16273 4.34571C3.35665 4.34571 4.32545 3.35665 4.32545 2.16273C4.3247 0.968799 3.3559 0 2.16273 0V0Z" fill="#0038FF"/>
</g>
<defs>
<clipPath id="clip0_63_1057">
<rect width="18.0102" height="18.0102" fill="white"/>
</clipPath>
</defs>
</svg>
