<svg width="19" height="19" viewBox="0 0 19 19" fill="none" xmlns="http://www.w3.org/2000/svg">
<g clip-path="url(#clip0_63_1061)">
<path d="M16.1597 5.33779C16.8921 4.81775 17.5082 4.16863 18.0102 3.42121V3.42046C17.3401 3.71387 16.6272 3.90898 15.8828 4.00354C16.6482 3.54653 17.2328 2.82837 17.5074 1.96313C16.7938 2.38862 16.0058 2.68879 15.1661 2.85689C14.4885 2.13498 13.5227 1.68848 12.4691 1.68848C10.4249 1.68848 8.77923 3.34767 8.77923 5.38132C8.77923 5.67399 8.80399 5.95539 8.86477 6.2233C5.79553 6.07321 3.07899 4.60238 1.25396 2.36086C0.93578 2.91392 0.748174 3.54653 0.748174 4.22716C0.748174 5.50589 1.4063 6.63903 2.3886 7.29565C1.79502 7.2844 1.21344 7.1118 0.720408 6.8409V6.88142C0.720408 8.67569 1.99988 10.166 3.67858 10.5097C3.37766 10.5923 3.05048 10.6313 2.71054 10.6313C2.47415 10.6313 2.23552 10.6178 2.01189 10.5683C2.48991 12.0301 3.84818 13.1054 5.4616 13.1407C4.20538 14.123 2.60998 14.7151 0.883251 14.7151C0.580829 14.7151 0.290415 14.7016 0 14.6648C1.63593 15.7192 3.57352 16.3218 5.66421 16.3218C12.1802 16.3218 16.4268 10.8857 16.1597 5.33779Z" fill="#0038FF"/>
</g>
<defs>
<clipPath id="clip0_63_1061">
<rect width="18.0102" height="18.0102" fill="white"/>
</clipPath>
</defs>
</svg>
