<svg width="442" height="383" viewBox="0 0 442 383" fill="none" xmlns="http://www.w3.org/2000/svg">
<g filter="url(#filter0_dddddd_63_1131)">
<path d="M87.6477 1.41992H328.993L341.238 10.8999L353.878 20.7749V185.48H87.6477V1.41992Z" fill="white"/>
</g>
<path d="M104.475 88.207V82.4048H104.361L103.02 84.6836H102.407L103.958 82.0717H105.019V88.207H104.475ZM108.571 88.3297C107.881 88.3297 107.335 88.1223 106.932 87.7074C106.535 87.2867 106.336 86.6644 106.336 85.8405V84.4382C106.336 83.6143 106.535 82.9949 106.932 82.58C107.335 82.1593 107.881 81.949 108.571 81.949C109.26 81.949 109.804 82.1593 110.201 82.58C110.604 82.9949 110.806 83.6143 110.806 84.4382V85.8405C110.806 86.6644 110.604 87.2867 110.201 87.7074C109.804 88.1223 109.26 88.3297 108.571 88.3297ZM108.571 87.8389C109.132 87.8389 109.553 87.6665 109.833 87.3218C110.119 86.9712 110.262 86.4891 110.262 85.8756V84.4031C110.262 83.7896 110.119 83.3104 109.833 82.9657C109.553 82.6151 109.132 82.4398 108.571 82.4398C108.01 82.4398 107.586 82.6151 107.3 82.9657C107.019 83.3104 106.879 83.7896 106.879 84.4031V85.8756C106.879 86.4891 107.019 86.9712 107.3 87.3218C107.586 87.6665 108.01 87.8389 108.571 87.8389ZM112.135 88.207V82.0717H112.661V85.7704H112.767L114.949 83.9474H115.72L113.196 86.0246L115.79 88.207H115.028L112.767 86.2875H112.661V88.207H112.135Z" fill="#718EBF"/>
<path d="M110.887 109.023V107.761H107.609V107.113L110.379 102.888H111.431V107.27H112.5V107.761H111.431V109.023H110.887ZM108.179 107.27H110.887V103.204H110.782L108.179 107.183V107.27ZM113.518 109.023V102.888H114.044V106.587H114.149L116.331 104.764H117.103L114.578 106.841L117.173 109.023H116.41L114.149 107.104H114.044V109.023H113.518Z" fill="#718EBF"/>
<path d="M106.939 129.84V129.235C106.939 128.797 107.018 128.452 107.176 128.201C107.334 127.944 107.553 127.739 107.833 127.587C108.12 127.435 108.456 127.301 108.841 127.184L109.28 127.044C109.566 126.956 109.817 126.851 110.033 126.728C110.255 126.6 110.428 126.436 110.551 126.238C110.673 126.039 110.735 125.788 110.735 125.484V125.449C110.735 125.022 110.586 124.686 110.288 124.441C109.995 124.195 109.622 124.073 109.166 124.073C108.681 124.073 108.283 124.204 107.974 124.467C107.664 124.724 107.509 125.119 107.509 125.65V125.764H106.983V125.65C106.983 125.206 107.077 124.832 107.264 124.528C107.451 124.219 107.708 123.985 108.035 123.827C108.368 123.664 108.745 123.582 109.166 123.582C109.586 123.582 109.955 123.661 110.27 123.818C110.591 123.97 110.84 124.187 111.015 124.467C111.19 124.742 111.278 125.063 111.278 125.431V125.51C111.278 125.907 111.199 126.235 111.041 126.492C110.889 126.743 110.673 126.95 110.393 127.114C110.112 127.272 109.782 127.412 109.402 127.535L108.964 127.666C108.649 127.766 108.38 127.871 108.158 127.982C107.942 128.087 107.775 128.23 107.658 128.411C107.541 128.586 107.483 128.832 107.483 129.147V129.349H111.225V129.84H106.939ZM112.518 129.84V123.705H113.044V127.403H113.149L115.331 125.58H116.103L113.578 127.657L116.173 129.84H115.41L113.149 127.92H113.044V129.84H112.518Z" fill="#718EBF"/>
<path d="M112.862 151.875C112.172 151.875 111.626 151.667 111.223 151.252C110.826 150.832 110.627 150.209 110.627 149.385V147.983C110.627 147.159 110.826 146.54 111.223 146.125C111.626 145.704 112.172 145.494 112.862 145.494C113.551 145.494 114.095 145.704 114.492 146.125C114.895 146.54 115.097 147.159 115.097 147.983V149.385C115.097 150.209 114.895 150.832 114.492 151.252C114.095 151.667 113.551 151.875 112.862 151.875ZM112.862 151.384C113.423 151.384 113.844 151.211 114.124 150.867C114.41 150.516 114.554 150.034 114.554 149.421V147.948C114.554 147.335 114.41 146.855 114.124 146.511C113.844 146.16 113.423 145.985 112.862 145.985C112.301 145.985 111.877 146.16 111.591 146.511C111.311 146.855 111.17 147.335 111.17 147.948V149.421C111.17 150.034 111.311 150.516 111.591 150.867C111.877 151.211 112.301 151.384 112.862 151.384Z" fill="#718EBF"/>
<path d="M136.819 165.021C136.381 165.021 135.989 164.945 135.644 164.793C135.3 164.635 135.028 164.399 134.829 164.083C134.631 163.762 134.531 163.356 134.531 162.865V162.698H135.092V162.865C135.092 163.432 135.253 163.853 135.574 164.127C135.902 164.396 136.316 164.53 136.819 164.53C137.327 164.53 137.719 164.413 137.993 164.18C138.268 163.94 138.405 163.636 138.405 163.268C138.405 163.023 138.344 162.827 138.221 162.681C138.104 162.529 137.938 162.409 137.722 162.322C137.511 162.228 137.266 162.146 136.986 162.076L136.425 161.936C136.091 161.848 135.793 161.74 135.531 161.612C135.268 161.477 135.06 161.305 134.908 161.095C134.756 160.878 134.68 160.604 134.68 160.271C134.68 159.938 134.765 159.648 134.935 159.403C135.11 159.158 135.349 158.971 135.653 158.842C135.957 158.708 136.311 158.64 136.714 158.64C137.117 158.64 137.479 158.711 137.801 158.851C138.128 158.991 138.385 159.198 138.572 159.473C138.765 159.742 138.861 160.081 138.861 160.49V160.902H138.3V160.49C138.3 160.168 138.23 159.908 138.09 159.71C137.95 159.511 137.76 159.365 137.52 159.271C137.281 159.178 137.012 159.131 136.714 159.131C136.287 159.131 135.934 159.231 135.653 159.429C135.379 159.622 135.241 159.903 135.241 160.271C135.241 160.516 135.297 160.712 135.408 160.858C135.525 161.004 135.685 161.121 135.89 161.208C136.1 161.296 136.346 161.375 136.626 161.445L137.187 161.585C137.508 161.661 137.804 161.764 138.072 161.892C138.341 162.015 138.557 162.187 138.721 162.409C138.885 162.625 138.966 162.912 138.966 163.268C138.966 163.625 138.876 163.934 138.695 164.197C138.519 164.46 138.271 164.665 137.95 164.811C137.628 164.951 137.251 165.021 136.819 165.021Z" fill="#718EBF"/>
<path d="M125.994 142.751C125.994 140.935 127.465 139.464 129.28 139.464H144.619C146.434 139.464 147.906 140.935 147.906 142.751V152.611H125.994V142.751Z" fill="#E8F2FF"/>
<path d="M159.949 164.898V158.763H161.044L162.903 164.565H163.008L164.866 158.763H165.961V164.898H165.418V159.096H165.313L163.455 164.898H162.456L160.597 159.096H160.492V164.898H159.949Z" fill="#718EBF"/>
<path d="M152.288 136.178C152.288 134.363 153.759 132.892 155.575 132.892H170.913C172.728 132.892 174.2 134.363 174.2 136.178V152.612H152.288V136.178Z" fill="#E8F2FF"/>
<path d="M189.067 164.899V159.272H187.016V158.764H191.679V159.272H189.628V164.899H189.067Z" fill="#718EBF"/>
<path d="M178.582 109.884C178.582 108.069 180.054 106.598 181.869 106.598H197.207C199.023 106.598 200.494 108.069 200.494 109.884V152.613H178.582V109.884Z" fill="#E8F2FF"/>
<path d="M213.083 164.898L212.004 158.763H212.574L213.556 164.565H213.661L214.932 158.763H215.966L217.237 164.565H217.342L218.324 158.763H218.894L217.816 164.898H216.773L215.502 159.096H215.396L214.126 164.898H213.083Z" fill="#718EBF"/>
<path d="M204.876 121.935C204.876 120.12 206.348 118.648 208.163 118.648H223.502C225.317 118.648 226.788 120.12 226.788 121.935V152.612H204.876V121.935Z" fill="#0038FF"/>
<path d="M241.656 164.898V159.271H239.605V158.763H244.268V159.271H242.217V164.898H241.656Z" fill="#718EBF"/>
<path d="M231.171 91.2585C231.171 89.4432 232.643 87.9717 234.458 87.9717H249.796C251.611 87.9717 253.083 89.4432 253.083 91.2585V152.612H231.171V91.2585Z" fill="#0038FF"/>
<path d="M268.204 164.898V158.763H271.851V159.271H268.765V161.568H271.596V162.076H268.765V164.898H268.204Z" fill="#718EBF"/>
<path d="M257.465 142.751C257.465 140.935 258.937 139.464 260.752 139.464H276.091C277.906 139.464 279.377 140.935 279.377 142.751V152.611H257.465V142.751Z" fill="#E8F2FF"/>
<path d="M294.585 165.021C294.147 165.021 293.755 164.945 293.41 164.793C293.066 164.635 292.794 164.399 292.595 164.083C292.397 163.762 292.297 163.356 292.297 162.865V162.698H292.858V162.865C292.858 163.432 293.019 163.853 293.34 164.127C293.667 164.396 294.082 164.53 294.585 164.53C295.093 164.53 295.485 164.413 295.759 164.18C296.034 163.94 296.171 163.636 296.171 163.268C296.171 163.023 296.11 162.827 295.987 162.681C295.87 162.529 295.704 162.409 295.488 162.322C295.277 162.228 295.032 162.146 294.751 162.076L294.19 161.936C293.857 161.848 293.559 161.74 293.296 161.612C293.033 161.477 292.826 161.305 292.674 161.095C292.522 160.878 292.446 160.604 292.446 160.271C292.446 159.938 292.531 159.648 292.7 159.403C292.876 159.158 293.115 158.971 293.419 158.842C293.723 158.708 294.076 158.64 294.48 158.64C294.883 158.64 295.245 158.711 295.566 158.851C295.894 158.991 296.151 159.198 296.338 159.473C296.531 159.742 296.627 160.081 296.627 160.49V160.902H296.066V160.49C296.066 160.168 295.996 159.908 295.856 159.71C295.715 159.511 295.526 159.365 295.286 159.271C295.046 159.178 294.778 159.131 294.48 159.131C294.053 159.131 293.7 159.231 293.419 159.429C293.144 159.622 293.007 159.903 293.007 160.271C293.007 160.516 293.063 160.712 293.174 160.858C293.291 161.004 293.451 161.121 293.656 161.208C293.866 161.296 294.112 161.375 294.392 161.445L294.953 161.585C295.274 161.661 295.569 161.764 295.838 161.892C296.107 162.015 296.323 162.187 296.487 162.409C296.65 162.625 296.732 162.912 296.732 163.268C296.732 163.625 296.642 163.934 296.461 164.197C296.285 164.46 296.037 164.665 295.715 164.811C295.394 164.951 295.017 165.021 294.585 165.021Z" fill="#718EBF"/>
<path d="M283.76 121.935C283.76 120.12 285.231 118.648 287.046 118.648H302.385C304.2 118.648 305.672 120.12 305.672 121.935V152.612H283.76V121.935Z" fill="#0038FF"/>
<path d="M321.974 165.022C321.536 165.022 321.145 164.946 320.8 164.794C320.455 164.636 320.183 164.4 319.985 164.084C319.786 163.763 319.687 163.357 319.687 162.866V162.699H320.248V162.866C320.248 163.433 320.408 163.853 320.73 164.128C321.057 164.397 321.472 164.531 321.974 164.531C322.483 164.531 322.874 164.414 323.149 164.181C323.423 163.941 323.561 163.637 323.561 163.269C323.561 163.024 323.499 162.828 323.377 162.682C323.26 162.53 323.093 162.41 322.877 162.323C322.667 162.229 322.421 162.147 322.141 162.077L321.58 161.937C321.247 161.849 320.949 161.741 320.686 161.613C320.423 161.478 320.216 161.306 320.064 161.096C319.912 160.879 319.836 160.605 319.836 160.272C319.836 159.939 319.92 159.649 320.09 159.404C320.265 159.158 320.505 158.972 320.809 158.843C321.112 158.709 321.466 158.641 321.869 158.641C322.272 158.641 322.635 158.711 322.956 158.852C323.283 158.992 323.54 159.199 323.727 159.474C323.92 159.743 324.017 160.082 324.017 160.491V160.903H323.456V160.491C323.456 160.169 323.385 159.909 323.245 159.711C323.105 159.512 322.915 159.366 322.676 159.272C322.436 159.179 322.167 159.132 321.869 159.132C321.443 159.132 321.089 159.232 320.809 159.43C320.534 159.623 320.397 159.903 320.397 160.272C320.397 160.517 320.452 160.713 320.563 160.859C320.68 161.005 320.841 161.122 321.045 161.209C321.256 161.297 321.501 161.376 321.782 161.446L322.342 161.586C322.664 161.662 322.959 161.765 323.228 161.893C323.497 162.016 323.713 162.188 323.876 162.41C324.04 162.626 324.122 162.913 324.122 163.269C324.122 163.626 324.031 163.935 323.85 164.198C323.675 164.461 323.426 164.666 323.105 164.812C322.784 164.952 322.407 165.022 321.974 165.022Z" fill="#718EBF"/>
<path d="M310.054 105.502C310.054 103.686 311.525 102.215 313.34 102.215H328.679C330.494 102.215 331.966 103.686 331.966 105.502V152.612H310.054V105.502Z" fill="#0038FF"/>
<defs>
<filter id="filter0_dddddd_63_1131" x="-3.8147e-05" y="-0.000296116" width="441.525" height="382.688" filterUnits="userSpaceOnUse" color-interpolation-filters="sRGB">
<feFlood flood-opacity="0" result="BackgroundImageFix"/>
<feColorMatrix in="SourceAlpha" type="matrix" values="0 0 0 0 0 0 0 0 0 0 0 0 0 0 0 0 0 0 127 0" result="hardAlpha"/>
<feOffset dy="2.02888"/>
<feGaussianBlur stdDeviation="1.72455"/>
<feColorMatrix type="matrix" values="0 0 0 0 0 0 0 0 0 0 0 0 0 0 0 0 0 0 0.01 0"/>
<feBlend mode="normal" in2="BackgroundImageFix" result="effect1_dropShadow_63_1131"/>
<feColorMatrix in="SourceAlpha" type="matrix" values="0 0 0 0 0 0 0 0 0 0 0 0 0 0 0 0 0 0 127 0" result="hardAlpha"/>
<feOffset dy="8.92708"/>
<feGaussianBlur stdDeviation="3.57083"/>
<feColorMatrix type="matrix" values="0 0 0 0 0 0 0 0 0 0 0 0 0 0 0 0 0 0 0.0117778 0"/>
<feBlend mode="normal" in2="effect1_dropShadow_63_1131" result="effect2_dropShadow_63_1131"/>
<feColorMatrix in="SourceAlpha" type="matrix" values="0 0 0 0 0 0 0 0 0 0 0 0 0 0 0 0 0 0 127 0" result="hardAlpha"/>
<feOffset dy="21.9119"/>
<feGaussianBlur stdDeviation="7.12138"/>
<feColorMatrix type="matrix" values="0 0 0 0 0 0 0 0 0 0 0 0 0 0 0 0 0 0 0.015 0"/>
<feBlend mode="normal" in2="effect2_dropShadow_63_1131" result="effect3_dropShadow_63_1131"/>
<feColorMatrix in="SourceAlpha" type="matrix" values="0 0 0 0 0 0 0 0 0 0 0 0 0 0 0 0 0 0 127 0" result="hardAlpha"/>
<feOffset dy="42.2008"/>
<feGaussianBlur stdDeviation="13.9587"/>
<feColorMatrix type="matrix" values="0 0 0 0 0 0 0 0 0 0 0 0 0 0 0 0 0 0 0.0182222 0"/>
<feBlend mode="normal" in2="effect3_dropShadow_63_1131" result="effect4_dropShadow_63_1131"/>
<feColorMatrix in="SourceAlpha" type="matrix" values="0 0 0 0 0 0 0 0 0 0 0 0 0 0 0 0 0 0 127 0" result="hardAlpha"/>
<feOffset dy="71.0109"/>
<feGaussianBlur stdDeviation="25.6654"/>
<feColorMatrix type="matrix" values="0 0 0 0 0 0 0 0 0 0 0 0 0 0 0 0 0 0 0.0227778 0"/>
<feBlend mode="normal" in2="effect4_dropShadow_63_1131" result="effect5_dropShadow_63_1131"/>
<feColorMatrix in="SourceAlpha" type="matrix" values="0 0 0 0 0 0 0 0 0 0 0 0 0 0 0 0 0 0 127 0" result="hardAlpha"/>
<feOffset dy="109.56"/>
<feGaussianBlur stdDeviation="43.8239"/>
<feColorMatrix type="matrix" values="0 0 0 0 0 0 0 0 0 0 0 0 0 0 0 0 0 0 0.03 0"/>
<feBlend mode="normal" in2="effect5_dropShadow_63_1131" result="effect6_dropShadow_63_1131"/>
<feBlend mode="normal" in="SourceGraphic" in2="effect6_dropShadow_63_1131" result="shape"/>
</filter>
</defs>
</svg>
