<svg width="335" height="60" viewBox="0 0 335 60" fill="none" xmlns="http://www.w3.org/2000/svg">
<g clip-path="url(#clip0_63_1205)">
<path d="M79.0108 51.313H121.476V59.86H71.8308V0.155273H121.46V8.45364H79.0108V25.672H121.46V34.2035H79.0108V51.313Z" fill="white"/>
<path d="M334.892 0.12452V8.45394C334.308 8.45394 333.739 8.53163 333.155 8.53163H299.7C296.025 8.53163 293.55 10.0856 292.812 13.1159C292.482 15.0246 292.323 16.9593 292.335 18.8968C292.331 19.4239 292.408 19.9483 292.566 20.4508C293.534 24.2115 295.733 25.7811 300.053 25.7966H320.932C328.912 25.7966 333.632 29.9924 334.677 38.0421C335.195 41.6879 335.112 45.3952 334.431 49.0134C333.032 56.0064 328.835 59.8137 321.778 59.8914C309.801 60.0623 297.824 60.0002 285.847 60.0157C285.589 60.0014 285.332 59.9703 285.078 59.9225V51.3444H320.794C324.668 51.3444 327.036 49.4951 327.559 45.6257C327.836 43.5108 327.774 41.3646 327.374 39.2698C326.728 35.9753 324.299 34.3125 320.809 34.297C313.629 34.297 306.434 34.297 299.285 34.297C296.086 34.4735 292.924 33.5415 290.321 31.6552C287.819 29.6158 286.171 26.6962 285.709 23.4812C284.679 17.8557 284.586 12.2612 287.015 6.93101C287.946 4.80014 289.496 3.00606 291.46 1.78741C293.423 0.568757 295.707 -0.0166669 298.008 0.108964C310.078 -0.0153558 322.162 0.108964 334.231 0.108964C334.452 0.10139 334.673 0.106593 334.892 0.12452Z" fill="white"/>
<path d="M150.549 59.9379H143.446V0.015625L186.096 40.6372V0.233161H193.076V59.9068L150.549 19.3319V59.9379Z" fill="white"/>
<path d="M213.37 0.140041C213.816 0.140041 214.124 0.03125 214.431 0.03125H220.504C220.504 0.746091 220.581 1.33661 220.581 1.92713C220.581 11.6552 220.381 21.4143 220.581 31.1424C220.581 34.9086 221.579 38.6061 223.471 41.8502C225.364 45.0943 228.082 47.7664 231.344 49.5884C234.079 51.0961 237.217 51.6873 240.306 51.2768C243.395 50.8662 246.276 49.4752 248.532 47.304C251.044 45.0268 253.033 42.2226 254.361 39.0875C255.689 35.9524 256.323 32.562 256.22 29.1533C256.128 20.109 256.22 11.0647 256.22 2.02037V0.108979H263.431V1.55419C263.431 11.391 263.554 21.2278 263.431 31.0802C263.292 39.8914 260.509 47.6925 254.021 53.8619C251.854 55.9219 249.302 57.5234 246.513 58.5722C243.725 59.621 240.758 60.0959 237.786 59.9691C226.055 59.8292 217.66 50.5518 214.969 40.5441C214.085 37.1331 213.61 33.6269 213.555 30.1012C213.37 20.6839 213.555 11.2667 213.555 1.84945L213.37 0.140041Z" fill="white"/>
<path d="M49.8449 59.9225L0 0.03125C3.70531 0.03125 7.05699 0.03125 10.3933 0.03125C10.7469 0.03125 11.1774 0.466403 11.4542 0.792743C20.5868 11.7329 29.704 22.6783 38.8058 33.6288C40.005 35.0896 41.2196 36.5192 42.711 38.2908V0.108979H49.8449V59.9225Z" fill="white"/>
</g>
<defs>
<clipPath id="clip0_63_1205">
<rect width="335" height="60" fill="white"/>
</clipPath>
</defs>
</svg>
