<svg width="32" height="32" viewBox="0 0 32 32" fill="none" xmlns="http://www.w3.org/2000/svg">
<g clip-path="url(#clip0_63_1181)">
<path d="M9.47997 20.9187C9.62933 21.0681 9.71203 21.2718 9.71079 21.4829C9.70956 21.6939 9.62315 21.8952 9.47256 22.0433C9.32073 22.1902 9.11706 22.2704 8.90597 22.2667C8.69489 22.263 8.49368 22.1753 8.34927 22.0223C7.23958 20.8879 6.40018 19.5165 5.89658 18.0119C5.82869 17.812 5.84226 17.5935 5.93731 17.4046C6.03113 17.2145 6.19653 17.0713 6.39772 17.0059C6.59769 16.9392 6.8174 16.9565 7.00504 17.0528C7.19267 17.1503 7.33463 17.317 7.39758 17.5194C7.82592 18.7945 8.53815 19.9573 9.47995 20.9189L9.47997 20.9187ZM25.201 17.0032C25.0022 16.9365 24.785 16.9526 24.5973 17.0464C24.4097 17.1414 24.2678 17.3068 24.2023 17.5056C23.7752 18.7869 23.063 19.9533 22.12 20.9187C21.9706 21.0681 21.8879 21.2717 21.8891 21.4828C21.8904 21.6939 21.9768 21.8951 22.1274 22.0432C22.2792 22.1901 22.4829 22.2703 22.694 22.2666C22.905 22.2629 23.1062 22.1753 23.2507 22.0222C24.3616 20.8878 25.1997 19.5164 25.7034 18.0119C25.7725 17.8119 25.7577 17.5922 25.6639 17.4021C25.5688 17.2132 25.4022 17.0688 25.201 17.0034L25.201 17.0032ZM13.825 6.13342C15.1359 5.8347 16.4961 5.8347 17.8072 6.13342C18.0133 6.18897 18.2343 6.15688 18.417 6.04702C18.6009 5.93592 18.7317 5.7557 18.7799 5.5471C18.828 5.33849 18.7885 5.11877 18.6725 4.93978C18.5552 4.75956 18.3713 4.63489 18.1602 4.59414C16.6185 4.24234 15.0163 4.24234 13.4746 4.59414C13.0894 4.72005 12.8623 5.1175 12.9487 5.51377C13.0351 5.91 13.4067 6.17541 13.8091 6.12971L13.825 6.13342ZM6.29532 1.54163C8.11478 1.53299 9.59846 2.99943 9.61332 4.81886C9.61332 6.65192 8.12714 8.13686 6.29532 8.13686C4.46226 8.13686 2.97732 6.65192 2.97732 4.81886C2.9909 2.9994 4.47462 1.53309 6.29532 1.54163ZM6.29532 3.12163C5.61269 3.13891 5.00664 3.56229 4.75605 4.19799C4.50671 4.83245 4.66224 5.55581 5.14982 6.03227C5.63864 6.50997 6.36569 6.64699 6.99396 6.38284C7.6235 6.11745 8.03208 5.50149 8.03332 4.81889C8.02097 3.87089 7.24332 3.11177 6.29532 3.12163ZM7.09148 11.6214L8.62335 10.1118H9.10351C9.47876 10.1068 9.84043 10.2513 10.1083 10.5117C10.3774 10.7734 10.5304 11.1301 10.5354 11.5054V13.3162C10.5354 13.7519 10.8897 14.1062 11.3254 14.1062C11.7624 14.1062 12.1154 13.7519 12.1154 13.3162V11.5054C12.1031 9.85375 10.7564 8.52311 9.10355 8.53174H8.30119C8.09381 8.53174 7.89633 8.61444 7.74819 8.75886L6.29408 10.187L4.83998 8.75886H4.84121C4.69432 8.61444 4.49557 8.53174 4.28821 8.53174H3.476C1.82812 8.52803 0.486355 9.85745 0.473999 11.5054V13.3162C0.473999 13.7519 0.828267 14.1062 1.264 14.1062C1.69973 14.1062 2.054 13.7519 2.054 13.3162V11.5054C2.06387 10.7289 2.69959 10.1068 3.476 10.1117H3.95616L5.49173 11.6226C5.93735 12.0571 6.64835 12.0559 7.09148 11.6189L7.09148 11.6214ZM28.6228 4.81507C28.6228 6.64812 27.1378 8.13307 25.3048 8.13307C23.4729 8.13307 21.9868 6.64812 21.9868 4.81507C21.9868 2.98325 23.4729 1.49707 25.3048 1.49707C27.1378 1.49707 28.6228 2.98325 28.6228 4.81507ZM27.0428 4.81507C27.0601 4.109 26.6478 3.46344 25.9997 3.18075C25.3517 2.89931 24.5975 3.03756 24.0914 3.53132C23.5865 4.02507 23.4297 4.77557 23.6964 5.42979C23.963 6.084 24.5987 6.51234 25.3047 6.51234C26.254 6.52345 27.0316 5.7643 27.0427 4.81507H27.0428ZM28.1241 8.53186H27.3119C27.1045 8.53186 26.9058 8.61457 26.7589 8.75899L25.3048 10.1871L23.8507 8.75899H23.8519C23.7038 8.61457 23.5063 8.53186 23.2989 8.53186H22.4965C20.8437 8.52322 19.497 9.85388 19.4847 11.5055V13.3163C19.4847 13.7521 19.8377 14.1063 20.2747 14.1063C20.7104 14.1063 21.0647 13.7521 21.0647 13.3163V11.5055C21.0696 11.1302 21.2227 10.7735 21.4918 10.5118C21.7597 10.2514 22.1213 10.107 22.4966 10.1119H22.9767L24.5123 11.6191C24.9542 12.0424 25.6504 12.0424 26.0923 11.6191L27.634 10.1119H28.1241C28.4993 10.107 28.8598 10.2514 29.1289 10.5118C29.3967 10.7735 29.551 11.1302 29.556 11.5055V13.3163C29.556 13.7521 29.909 14.1063 30.346 14.1063C30.7817 14.1063 31.136 13.7521 31.136 13.3163V11.5055C31.1236 9.85388 29.7757 8.52324 28.1241 8.53186H28.1241ZM12.4821 20.7705C12.466 19.4251 13.2635 18.2018 14.5015 17.676C15.7396 17.1489 17.1739 17.4229 18.1317 18.3684C19.0884 19.314 19.3797 20.7446 18.8686 21.9888C18.3576 23.2343 17.1455 24.0478 15.8 24.0478C13.9805 24.0564 12.4956 22.59 12.482 20.7705H12.4821ZM14.0621 20.7705C14.0436 21.4766 14.4559 22.1247 15.1039 22.4073C15.752 22.69 16.5062 22.553 17.0123 22.0592C17.5184 21.5655 17.6764 20.815 17.4097 20.1608C17.1431 19.5053 16.5074 19.077 15.8001 19.077C14.8533 19.0659 14.0757 19.8238 14.0621 20.7705ZM18.6096 24.4861H17.8073C17.5999 24.4873 17.4012 24.5688 17.2543 24.7144L15.8002 26.1426L14.3461 24.7144C14.1992 24.5688 14.0004 24.4873 13.7931 24.4861H12.9907C11.3391 24.4774 9.99119 25.8081 9.97887 27.4597V29.2705C9.97887 29.7075 10.3331 30.0605 10.7689 30.0605C11.2058 30.0605 11.5589 29.7075 11.5589 29.2705V27.4597C11.565 27.0857 11.7181 26.7277 11.986 26.4673C12.2551 26.2056 12.6167 26.0611 12.9908 26.0661H13.4709L15.0065 27.577C15.4484 28.0003 16.1458 28.0003 16.5865 27.577L18.1221 26.0698H18.6035C18.9775 26.0649 19.3391 26.2093 19.607 26.4697C19.8761 26.7314 20.0292 27.0881 20.0341 27.4634V29.2742C20.0341 29.71 20.3884 30.0642 20.8241 30.0642C21.2611 30.0642 21.6141 29.71 21.6141 29.2742V27.4597C21.603 25.8106 20.2588 24.4811 18.6096 24.4861Z" fill="white"/>
</g>
<defs>
<clipPath id="clip0_63_1181">
<rect width="31.6" height="31.6" fill="white"/>
</clipPath>
</defs>
</svg>
