<svg width="162" height="29" viewBox="0 0 162 29" fill="none" xmlns="http://www.w3.org/2000/svg">
<g clip-path="url(#clip0_63_1199)">
<path d="M38.2082 24.8014H58.7435V28.9325H34.7361V0.0751953H58.7361V4.08607H38.2082V12.4083H58.7361V16.5318H38.2082V24.8014Z" fill="black"/>
<path d="M161.948 0.0601031V4.08599C161.665 4.08599 161.39 4.12354 161.108 4.12354H144.929C143.152 4.12354 141.955 4.87465 141.598 6.33929C141.439 7.26181 141.362 8.19693 141.368 9.13339C141.366 9.38813 141.403 9.64162 141.479 9.88449C141.948 11.7022 143.011 12.4608 145.1 12.4683H155.197C159.056 12.4683 161.338 14.4963 161.844 18.387C162.094 20.149 162.054 21.9409 161.725 23.6897C161.048 27.0697 159.019 28.9099 155.606 28.9474C149.814 29.0301 144.022 29 138.23 29.0075C138.106 29.0006 137.981 28.9855 137.859 28.9624V24.8164H155.13C157.004 24.8164 158.149 23.9226 158.401 22.0523C158.535 21.0301 158.505 19.9928 158.312 18.9803C158 17.388 156.825 16.5843 155.137 16.5768C151.665 16.5768 148.186 16.5768 144.729 16.5768C143.182 16.6621 141.653 16.2116 140.394 15.2999C139.184 14.3142 138.387 12.9031 138.163 11.3491C137.665 8.63016 137.621 5.92618 138.795 3.3499C139.245 2.31999 139.995 1.45285 140.945 0.863832C141.894 0.274818 142.999 -0.00813705 144.111 0.0525847C149.948 -0.00750335 155.792 0.0525847 161.628 0.0525847C161.735 0.0489237 161.842 0.0514388 161.948 0.0601031Z" fill="black"/>
<path d="M72.8029 28.9698H69.3679V0.00732422L89.9925 19.6411V0.112466H93.3679V28.9547L72.8029 9.3435V28.9698Z" fill="black"/>
<path d="M103.182 0.0677193C103.398 0.0677193 103.546 0.0151367 103.695 0.0151367H106.632C106.632 0.360643 106.669 0.646062 106.669 0.931481C106.669 5.63337 106.572 10.3503 106.669 15.0522C106.669 16.8725 107.151 18.6596 108.067 20.2276C108.982 21.7956 110.297 23.0871 111.874 23.9678C113.196 24.6965 114.714 24.9822 116.208 24.7838C117.702 24.5854 119.095 23.913 120.186 22.8636C121.4 21.763 122.362 20.4076 123.004 18.8923C123.647 17.377 123.953 15.7383 123.903 14.0908C123.859 9.71937 123.903 5.34795 123.903 0.976545V0.0527055H127.39V0.751224C127.39 5.50569 127.45 10.2602 127.39 15.0221C127.323 19.2809 125.978 23.0514 122.84 26.0333C121.792 27.029 120.558 27.803 119.209 28.3099C117.861 28.8168 116.426 29.0464 114.989 28.9851C109.316 28.9175 105.256 24.4334 103.955 19.5963C103.528 17.9477 103.298 16.253 103.271 14.5489C103.182 9.99727 103.271 5.4456 103.271 0.893935L103.182 0.0677193Z" fill="black"/>
<path d="M24.1041 28.9626L0 0.0151367C1.79182 0.0151367 3.41264 0.0151367 5.02602 0.0151367C5.19702 0.0151367 5.4052 0.225461 5.53903 0.383192C9.95539 5.67094 14.3643 10.9612 18.7658 16.254C19.3457 16.96 19.9331 17.651 20.6543 18.5073V0.0527055H24.1041V28.9626Z" fill="black"/>
</g>
<defs>
<clipPath id="clip0_63_1199">
<rect width="162" height="29" fill="white"/>
</clipPath>
</defs>
</svg>
