<svg width="98" height="16" viewBox="0 0 98 16" fill="none" xmlns="http://www.w3.org/2000/svg">
<path d="M13.7179 15.205V11.2471H9.40777C8.23564 11.2471 7.14988 11.8624 6.54956 12.8669L5.15222 15.205H13.7179Z" fill="#63D2F9"/>
<path d="M0 0V3.95792H11.3526L13.7181 0H0Z" fill="#4E5EE4"/>
<path d="M5.4333 6.18605L0.0125732 15.2054H4.63091L11.1131 4.41504H8.56287C7.28011 4.41504 6.09171 5.08755 5.4333 6.18605Z" fill="#63B0F9"/>
<path d="M23.544 11.4062C21.2217 11.4062 19.5128 9.71814 19.5128 7.4529C19.5128 5.20945 21.2326 3.49963 23.5549 3.49963C25.8772 3.49963 27.597 5.23123 27.597 7.4529C27.597 9.69636 25.8663 11.4062 23.544 11.4062ZM23.5549 10.0231C25.0228 10.0231 26.0744 8.93402 26.0744 7.4529C26.0744 5.99357 25.0228 4.88273 23.5549 4.88273C22.0761 4.88273 21.0245 5.99357 21.0245 7.4529C21.0245 8.93402 22.0761 10.0231 23.5549 10.0231ZM29.1521 13.7694V5.53616H30.5543V6.26583H30.631C30.7843 6.02624 31.3101 5.39459 32.3617 5.39459C33.972 5.39459 35.0784 6.59255 35.0784 8.3786C35.0784 10.1647 33.983 11.4062 32.4056 11.4062C31.3868 11.4062 30.8391 10.8399 30.6529 10.524H30.5762V13.7694H29.1521ZM32.0879 10.1211C33.008 10.1211 33.6324 9.4132 33.6324 8.40038C33.6324 7.35489 33.008 6.67967 32.0769 6.67967C31.1349 6.67967 30.5433 7.43112 30.5433 8.40038C30.5433 9.46766 31.2006 10.1211 32.0879 10.1211ZM39.153 11.4062C37.4551 11.4062 36.2501 10.1429 36.2501 8.43305C36.2501 6.62522 37.466 5.39459 39.153 5.39459C41.0042 5.39459 42.012 6.75591 42.012 8.36771V8.81422H37.6303C37.6741 9.68547 38.2766 10.2736 39.1968 10.2736C39.8979 10.2736 40.4346 9.94684 40.6318 9.47855H41.9573C41.6724 10.6438 40.6427 11.4062 39.153 11.4062ZM37.6522 7.81229H40.6537C40.588 7.03906 39.9855 6.52721 39.153 6.52721C38.3533 6.52721 37.7399 7.09351 37.6522 7.81229ZM43.5452 11.2646V5.53616H44.9035V6.23316H44.9802C45.2103 5.80843 45.7799 5.39459 46.6014 5.39459C47.894 5.39459 48.6828 6.2985 48.6828 7.51825V11.2646H47.2587V7.88852C47.2587 7.19153 46.8096 6.72324 46.1523 6.72324C45.4622 6.72324 44.9693 7.26776 44.9693 7.98654V11.2646H43.5452ZM50.0954 11.2646V9.96862L54.0828 4.96986V4.89362H50.2379V3.64121H55.9012V4.92629L51.9139 9.92506V10.0122H55.9231V11.2646H50.0954ZM59.7786 11.4062C58.0807 11.4062 56.8757 10.1429 56.8757 8.43305C56.8757 6.62522 58.0916 5.39459 59.7786 5.39459C61.6299 5.39459 62.6376 6.75591 62.6376 8.36771V8.81422H58.256C58.2998 9.68547 58.9023 10.2736 59.8224 10.2736C60.5235 10.2736 61.0602 9.94684 61.2574 9.47855H62.5829C62.2981 10.6438 61.2684 11.4062 59.7786 11.4062ZM58.2779 7.81229H61.2793C61.2136 7.03906 60.6111 6.52721 59.7786 6.52721C58.9789 6.52721 58.3655 7.09351 58.2779 7.81229ZM64.1708 13.7694V5.53616H65.573V6.26583H65.6497C65.803 6.02624 66.3288 5.39459 67.3804 5.39459C68.9907 5.39459 70.0971 6.59255 70.0971 8.3786C70.0971 10.1647 69.0017 11.4062 67.4242 11.4062C66.4055 11.4062 65.8578 10.8399 65.6716 10.524H65.5949V13.7694H64.1708ZM67.1066 10.1211C68.0267 10.1211 68.6511 9.4132 68.6511 8.40038C68.6511 7.35489 68.0267 6.67967 67.0956 6.67967C66.1536 6.67967 65.562 7.43112 65.562 8.40038C65.562 9.46766 66.2193 10.1211 67.1066 10.1211ZM71.6303 13.7694V5.53616H73.0324V6.26583H73.1091C73.2625 6.02624 73.7883 5.39459 74.8399 5.39459C76.4501 5.39459 77.5565 6.59255 77.5565 8.3786C77.5565 10.1647 76.4611 11.4062 74.8837 11.4062C73.8649 11.4062 73.3172 10.8399 73.131 10.524H73.0543V13.7694H71.6303ZM74.566 10.1211C75.4862 10.1211 76.1106 9.4132 76.1106 8.40038C76.1106 7.35489 75.4862 6.67967 74.5551 6.67967C73.613 6.67967 73.0215 7.43112 73.0215 8.40038C73.0215 9.46766 73.6787 10.1211 74.566 10.1211ZM81.6311 11.4062C79.9332 11.4062 78.7282 10.1429 78.7282 8.43305C78.7282 6.62522 79.9441 5.39459 81.6311 5.39459C83.4824 5.39459 84.4902 6.75591 84.4902 8.36771V8.81422H80.1085C80.1523 9.68547 80.7548 10.2736 81.6749 10.2736C82.376 10.2736 82.9127 9.94684 83.1099 9.47855H84.4354C84.1506 10.6438 83.1209 11.4062 81.6311 11.4062ZM80.1304 7.81229H83.1318C83.0661 7.03906 82.4636 6.52721 81.6311 6.52721C80.8314 6.52721 80.218 7.09351 80.1304 7.81229ZM87.4255 11.2646C86.4177 11.2646 85.8481 10.6656 85.8481 9.6528V3.09668H87.2721V9.52211C87.2721 9.84883 87.4364 10.0231 87.7322 10.0231H87.9622V11.2646H87.4255ZM90.0431 4.77383C89.5283 4.77383 89.1668 4.458 89.1668 3.94614C89.1668 3.45607 89.5283 3.12935 90.0431 3.12935C90.558 3.12935 90.9195 3.45607 90.9195 3.94614C90.9195 4.458 90.558 4.77383 90.0431 4.77383ZM89.3311 11.2646V5.53616H90.7552V11.2646H89.3311ZM92.4855 11.2646V5.53616H93.8439V6.23316H93.9205C94.1506 5.80843 94.7202 5.39459 95.5418 5.39459C96.8344 5.39459 97.6231 6.2985 97.6231 7.51825V11.2646H96.199V7.88852C96.199 7.19153 95.7499 6.72324 95.0926 6.72324C94.4025 6.72324 93.9096 7.26776 93.9096 7.98654V11.2646H92.4855Z" fill="#282846"/>
</svg>
