<svg width="98" height="23" viewBox="0 0 98 23" fill="none" xmlns="http://www.w3.org/2000/svg">
<path d="M0.212984 17.3164C0.0959101 17.2487 0 17.083 0 16.9484V5.92756C0 5.79274 0.0959101 5.62723 0.212984 5.55945L9.87984 0.0507382C9.99704 -0.0169127 10.1887 -0.0169127 10.3059 0.0507382L19.9722 5.56006C20.0894 5.62772 20.1852 5.79323 20.1852 5.92805V16.9489C20.1852 17.0833 20.0894 17.249 19.9722 17.3169L10.3059 22.8257C10.1887 22.8934 9.99704 22.8934 9.87984 22.8257L0.212984 17.3164ZM29.2652 7.02441V11.4945H31.1767C32.5639 11.4945 33.1805 10.9293 33.1805 10.0045V8.51444C33.1805 7.58971 32.5639 7.02441 31.1767 7.02441H29.2652ZM29.2652 12.916V16.9066C29.2652 17.1462 29.2035 17.249 28.9877 17.249H28.0473C27.847 17.249 27.7699 17.1462 27.7699 16.9066V5.94554C27.7699 5.70576 27.847 5.60288 28.0473 5.60288H31.1767C33.828 5.60288 34.6758 6.83601 34.6758 8.24041V10.2786C34.6758 11.6829 33.828 12.916 31.1767 12.916H29.2652ZM38.1545 7.02441V11.2205H40.0658C41.4532 11.2205 42.0699 10.6724 42.0699 9.73044V8.51444C42.0699 7.58971 41.4532 7.02441 40.0658 7.02441H38.1545ZM38.1545 12.642V16.9066C38.1545 17.1462 38.0927 17.249 37.8769 17.249H36.9366C36.7363 17.249 36.6592 17.1462 36.6592 16.9066V5.94554C36.6592 5.70576 36.7363 5.60288 36.9366 5.60288H40.0658C42.7173 5.60288 43.5651 6.83601 43.5651 8.24041V10.0216C43.5651 11.0663 43.0872 12.0083 41.7615 12.4195L43.6113 16.9066C43.6884 17.1121 43.5497 17.249 43.3339 17.249H42.4089C42.1931 17.249 42.1623 17.1121 42.0699 16.9066L40.3279 12.642H38.1545ZM51.6686 8.37742C51.6686 7.45258 51.0179 6.88739 49.5536 6.88739C48.1055 6.88739 47.4548 7.45258 47.4548 8.37742V14.4744C47.4548 15.3994 48.1055 15.9645 49.5536 15.9645C51.0179 15.9645 51.6686 15.3994 51.6686 14.4744V8.37742ZM45.8603 8.1034C45.8603 6.699 46.7715 5.46599 49.5536 5.46599C52.352 5.46599 53.2633 6.699 53.2633 8.1034V14.7486C53.2633 16.153 52.352 17.3861 49.5536 17.3861C46.7715 17.3861 45.8603 16.153 45.8603 14.7486V8.1034ZM61.8538 5.60288C62.0653 5.60288 62.163 5.68864 62.163 5.92829V6.699C62.163 6.93877 62.0653 7.02441 61.8538 7.02441H59.2507V16.9066C59.2507 17.1462 59.1693 17.249 58.9577 17.249H57.949C57.7375 17.249 57.6562 17.1462 57.6562 16.9066V7.02441H55.0529C54.8252 7.02441 54.7439 6.93877 54.7439 6.699V5.92829C54.7439 5.68864 54.8252 5.60288 55.0529 5.60288H61.8538ZM69.4361 8.37742C69.4361 7.45258 68.7853 6.88739 67.3211 6.88739C65.873 6.88739 65.2222 7.45258 65.2222 8.37742V14.4744C65.2222 15.3994 65.873 15.9645 67.3211 15.9645C68.7853 15.9645 69.4361 15.3994 69.4361 14.4744V8.37742ZM63.6277 8.1034C63.6277 6.699 64.5388 5.46599 67.3211 5.46599C70.1195 5.46599 71.0306 6.699 71.0306 8.1034V14.7486C71.0306 16.153 70.1195 17.3861 67.3211 17.3861C64.5388 17.3861 63.6277 16.153 63.6277 14.7486V8.1034ZM80.4483 16.9236C80.4483 17.1462 80.3866 17.249 80.1708 17.249H79.3229C79.1688 17.249 79.1071 17.1976 79.0456 17.0948L75.423 10.0388C75.0839 9.40503 74.8989 8.8741 74.868 8.80559V16.9236C74.868 17.1462 74.7909 17.249 74.5905 17.249H73.7273C73.527 17.249 73.4499 17.1462 73.4499 16.9236V5.92829C73.4499 5.70576 73.527 5.60288 73.7273 5.60288H74.5905C74.7139 5.60288 74.7909 5.65426 74.8372 5.7399L78.5522 12.9503C78.768 13.3613 79.0302 14.0463 79.0302 14.0463V5.92829C79.0302 5.70576 79.1225 5.60288 79.3229 5.60288H80.1708C80.3866 5.60288 80.4483 5.70576 80.4483 5.92829V16.9236ZM83.099 17.249C82.8988 17.249 82.8217 17.1462 82.8217 16.9066V5.94554C82.8217 5.70576 82.8988 5.60288 83.099 5.60288H88.371C88.5714 5.60288 88.6639 5.68864 88.6639 5.92829V6.699C88.6639 6.93877 88.5714 7.02441 88.371 7.02441H84.3168V10.484H88.0934C88.3093 10.484 88.4018 10.5697 88.4018 10.8094V11.5459C88.4018 11.7685 88.3093 11.8713 88.0934 11.8713H84.3168V15.8276H88.5406C88.7409 15.8276 88.8334 15.8961 88.8334 16.1357V16.9236C88.8334 17.1635 88.7409 17.249 88.5406 17.249H83.099ZM97.3298 5.60288C97.5303 5.60288 97.6228 5.68864 97.6228 5.92829V6.699C97.6228 6.93877 97.5303 7.02441 97.3298 7.02441H94.8634V16.9066C94.8634 17.1462 94.7863 17.249 94.5861 17.249H93.6303C93.4299 17.249 93.3528 17.1462 93.3528 16.9066V7.02441H90.8865C90.6706 7.02441 90.5935 6.93877 90.5935 6.699V5.92829C90.5935 5.68864 90.6706 5.60288 90.8865 5.60288H97.3298Z" fill="#E15B29"/>
</svg>
