<svg width="169" height="169" viewBox="0 0 169 169" fill="none" xmlns="http://www.w3.org/2000/svg">
<g opacity="0.3">
<path d="M0 0H4.56757V4.56757H0V0Z" fill="#C4C4C4"/>
<path d="M27.4054 0H31.973V4.56757H27.4054V0Z" fill="#C4C4C4"/>
<path d="M54.8108 0H59.3784V4.56757H54.8108V0Z" fill="#C4C4C4"/>
<path d="M82.2162 0H86.7838V4.56757H82.2162V0Z" fill="#C4C4C4"/>
<path d="M109.622 0H114.189V4.56757H109.622V0Z" fill="#C4C4C4"/>
<path d="M137.027 0H141.595V4.56757H137.027V0Z" fill="#C4C4C4"/>
<path d="M164.432 0H169V4.56757H164.432V0Z" fill="#C4C4C4"/>
<path d="M0 27.4054H4.56757V31.973H0V27.4054Z" fill="#C4C4C4"/>
<path d="M27.4054 27.4054H31.973V31.973H27.4054V27.4054Z" fill="#C4C4C4"/>
<path d="M54.8108 27.4054H59.3784V31.973H54.8108V27.4054Z" fill="#C4C4C4"/>
<path d="M82.2162 27.4054H86.7838V31.973H82.2162V27.4054Z" fill="#C4C4C4"/>
<path d="M109.622 27.4054H114.189V31.973H109.622V27.4054Z" fill="#C4C4C4"/>
<path d="M137.027 27.4054H141.595V31.973H137.027V27.4054Z" fill="#C4C4C4"/>
<path d="M164.432 27.4054H169V31.973H164.432V27.4054Z" fill="#C4C4C4"/>
<path d="M0 54.8108H4.56757V59.3784H0V54.8108Z" fill="#C4C4C4"/>
<path d="M27.4054 54.8108H31.973V59.3784H27.4054V54.8108Z" fill="#C4C4C4"/>
<path d="M54.8108 54.8108H59.3784V59.3784H54.8108V54.8108Z" fill="#C4C4C4"/>
<path d="M82.2162 54.8108H86.7838V59.3784H82.2162V54.8108Z" fill="#C4C4C4"/>
<path d="M109.622 54.8108H114.189V59.3784H109.622V54.8108Z" fill="#C4C4C4"/>
<path d="M137.027 54.8108H141.595V59.3784H137.027V54.8108Z" fill="#C4C4C4"/>
<path d="M164.432 54.8108H169V59.3784H164.432V54.8108Z" fill="#C4C4C4"/>
<path d="M0 82.2162H4.56757V86.7838H0V82.2162Z" fill="#C4C4C4"/>
<path d="M27.4054 82.2162H31.973V86.7838H27.4054V82.2162Z" fill="#C4C4C4"/>
<path d="M54.8108 82.2162H59.3784V86.7838H54.8108V82.2162Z" fill="#C4C4C4"/>
<path d="M82.2162 82.2162H86.7838V86.7838H82.2162V82.2162Z" fill="#C4C4C4"/>
<path d="M109.622 82.2162H114.189V86.7838H109.622V82.2162Z" fill="#C4C4C4"/>
<path d="M137.027 82.2162H141.595V86.7838H137.027V82.2162Z" fill="#C4C4C4"/>
<path d="M164.432 82.2162H169V86.7838H164.432V82.2162Z" fill="#C4C4C4"/>
<path d="M0 109.622H4.56757V114.189H0V109.622Z" fill="#C4C4C4"/>
<path d="M27.4054 109.622H31.973V114.189H27.4054V109.622Z" fill="#C4C4C4"/>
<path d="M54.8108 109.622H59.3784V114.189H54.8108V109.622Z" fill="#C4C4C4"/>
<path d="M82.2162 109.622H86.7838V114.189H82.2162V109.622Z" fill="#C4C4C4"/>
<path d="M109.622 109.622H114.189V114.189H109.622V109.622Z" fill="#C4C4C4"/>
<path d="M137.027 109.622H141.595V114.189H137.027V109.622Z" fill="#C4C4C4"/>
<path d="M164.432 109.622H169V114.189H164.432V109.622Z" fill="#C4C4C4"/>
<path d="M0 137.027H4.56757V141.595H0V137.027Z" fill="#C4C4C4"/>
<path d="M27.4054 137.027H31.973V141.595H27.4054V137.027Z" fill="#C4C4C4"/>
<path d="M54.8108 137.027H59.3784V141.595H54.8108V137.027Z" fill="#C4C4C4"/>
<path d="M82.2162 137.027H86.7838V141.595H82.2162V137.027Z" fill="#C4C4C4"/>
<path d="M109.622 137.027H114.189V141.595H109.622V137.027Z" fill="#C4C4C4"/>
<path d="M137.027 137.027H141.595V141.595H137.027V137.027Z" fill="#C4C4C4"/>
<path d="M164.432 137.027H169V141.595H164.432V137.027Z" fill="#C4C4C4"/>
<path d="M0 164.432H4.56757V169H0V164.432Z" fill="#C4C4C4"/>
<path d="M27.4054 164.432H31.973V169H27.4054V164.432Z" fill="#C4C4C4"/>
<path d="M54.8108 164.432H59.3784V169H54.8108V164.432Z" fill="#C4C4C4"/>
<path d="M82.2162 164.432H86.7838V169H82.2162V164.432Z" fill="#C4C4C4"/>
<path d="M109.622 164.432H114.189V169H109.622V164.432Z" fill="#C4C4C4"/>
<path d="M137.027 164.432H141.595V169H137.027V164.432Z" fill="#C4C4C4"/>
<path d="M164.432 164.432H169V169H164.432V164.432Z" fill="#C4C4C4"/>
</g>
</svg>
